<svg id="Layer_1" data-name="Layer 1" xmlns="http://www.w3.org/2000/svg" viewBox="0 0 253.37 253.37">
  <defs>
    <style>
      .cls-1 {
        fill: #606;
      }

      .cls-1, .cls-2 {
        fill-rule: evenodd;
      }

      .cls-2 {
        fill: #fefefe;
        stroke: #000;
        stroke-miterlimit: 10;
      }
    </style>
  </defs>
  <title>UVTools</title>
  <path class="cls-1" d="M43.85.87H212.78C236.1.87,255,18.52,255,40.29V214.81c0,21.77-18.9,39.43-42.22,39.43H43.85c-23.31,0-42.22-17.66-42.22-39.43V40.29C1.63,18.52,20.54.87,43.85.87Z" transform="translate(-1.63 -0.87)"/>
  <path class="cls-2" d="M203.67,80a17.72,17.72,0,0,1,4.39,34.88v18.47A17.72,17.72,0,1,1,191,162.88l-16,9.24a17.48,17.48,0,0,1,.65,4.76,17.72,17.72,0,1,1-35.43,0,17.48,17.48,0,0,1,.65-4.76l-16-9.24a17.73,17.73,0,0,1-29.84-8H70.13a17.72,17.72,0,1,1-21.56-21.56V114.85a17.72,17.72,0,1,1,8.78,0v18.47a17.73,17.73,0,0,1,12.78,12.8H95a17.73,17.73,0,0,1,12.78-12.8V114.85a17.73,17.73,0,1,1,8.8,0v18.47a17.67,17.67,0,0,1,12.66,22l16,9.24a17.71,17.71,0,0,1,25.35,0l16-9.24a17.48,17.48,0,0,1-.65-4.79,17.73,17.73,0,0,1,13.32-17.16V114.85A17.72,17.72,0,0,1,203.67,80Z" transform="translate(-1.63 -0.87)"/>
</svg>
