G04 #@! TF.GenerationSoftware,KiCad,Pcbnew,10.0.5*
G04 #@! TF.CreationDate,2026-07-26T23:15:38+00:00*
G04 #@! TF.ProjectId,hawk,6861776b-2e6b-4696-9361-645f70636258,rev?*
G04 #@! TF.SameCoordinates,Original*
G04 #@! TF.FileFunction,Copper,L1,Top*
G04 #@! TF.FilePolarity,Positive*
%FSLAX46Y46*%
G04 Gerber Fmt 4.6, Leading zero omitted, Abs format (unit mm)*
G04 Created by KiCad (PCBNEW 10.0.5) date 2026-07-26 23:15:38*
%MOMM*%
%LPD*%
G01*
G04 APERTURE LIST*
G04 Aperture macros list*
%AMRoundRect*
0 Rectangle with rounded corners*
0 $1 Rounding radius*
0 $2 $3 $4 $5 $6 $7 $8 $9 X,Y pos of 4 corners*
0 Add a 4 corners polygon primitive as box body*
4,1,4,$2,$3,$4,$5,$6,$7,$8,$9,$2,$3,0*
0 Add four circle primitives for the rounded corners*
1,1,$1+$1,$2,$3*
1,1,$1+$1,$4,$5*
1,1,$1+$1,$6,$7*
1,1,$1+$1,$8,$9*
0 Add four rect primitives between the rounded corners*
20,1,$1+$1,$2,$3,$4,$5,0*
20,1,$1+$1,$4,$5,$6,$7,0*
20,1,$1+$1,$6,$7,$8,$9,0*
20,1,$1+$1,$8,$9,$2,$3,0*%
G04 Aperture macros list end*
G04 #@! TA.AperFunction,ComponentPad*
%ADD10C,3.000000*%
G04 #@! TD*
G04 #@! TA.AperFunction,SMDPad,CuDef*
%ADD11RoundRect,0.250000X-0.325000X-0.450000X0.325000X-0.450000X0.325000X0.450000X-0.325000X0.450000X0*%
G04 #@! TD*
G04 #@! TA.AperFunction,SMDPad,CuDef*
%ADD12RoundRect,0.250000X0.450000X-0.325000X0.450000X0.325000X-0.450000X0.325000X-0.450000X-0.325000X0*%
G04 #@! TD*
G04 #@! TA.AperFunction,SMDPad,CuDef*
%ADD13RoundRect,0.250000X0.325000X0.450000X-0.325000X0.450000X-0.325000X-0.450000X0.325000X-0.450000X0*%
G04 #@! TD*
G04 #@! TA.AperFunction,SMDPad,CuDef*
%ADD14RoundRect,0.250000X-0.450000X0.325000X-0.450000X-0.325000X0.450000X-0.325000X0.450000X0.325000X0*%
G04 #@! TD*
G04 #@! TA.AperFunction,ComponentPad*
%ADD15R,1.700000X1.700000*%
G04 #@! TD*
G04 #@! TA.AperFunction,ComponentPad*
%ADD16O,1.700000X1.700000*%
G04 #@! TD*
G04 #@! TA.AperFunction,ComponentPad*
%ADD17RoundRect,0.250000X0.625000X-0.350000X0.625000X0.350000X-0.625000X0.350000X-0.625000X-0.350000X0*%
G04 #@! TD*
G04 #@! TA.AperFunction,ComponentPad*
%ADD18O,1.750000X1.200000*%
G04 #@! TD*
G04 #@! TA.AperFunction,ComponentPad*
%ADD19C,2.000000*%
G04 #@! TD*
G04 #@! TA.AperFunction,SMDPad,CuDef*
%ADD20R,1.500000X0.600000*%
G04 #@! TD*
G04 #@! TA.AperFunction,SMDPad,CuDef*
%ADD21R,0.800000X0.900000*%
G04 #@! TD*
G04 #@! TA.AperFunction,Conductor*
%ADD22C,0.250000*%
G04 #@! TD*
G04 APERTURE END LIST*
D10*
X27100000Y-42300000D03*
X13100000Y-42300000D03*
X13100000Y-12400000D03*
D11*
X22775000Y-26200000D03*
X24825000Y-26200000D03*
D12*
X23300000Y-21975000D03*
X23300000Y-24025000D03*
D13*
X27425000Y-20000000D03*
X25375000Y-20000000D03*
D14*
X20700000Y-23675000D03*
X20700000Y-25725000D03*
D15*
X22600000Y-39700000D03*
D16*
X22600000Y-42240000D03*
X20060000Y-39700000D03*
X20060000Y-42240000D03*
X17520000Y-39700000D03*
X17520000Y-42240000D03*
D15*
X13780000Y-29280000D03*
D16*
X13780000Y-31820000D03*
X13780000Y-34360000D03*
X13780000Y-36900000D03*
X26480000Y-36900000D03*
X26480000Y-34360000D03*
X26480000Y-31820000D03*
D15*
X26480000Y-29280000D03*
D17*
X13500000Y-24000000D03*
D18*
X13500000Y-22000000D03*
D12*
X27300000Y-17625000D03*
X27300000Y-15575000D03*
X18400000Y-23675000D03*
X18400000Y-25725000D03*
D19*
X23400000Y-12500000D03*
X23400000Y-17000000D03*
X16900000Y-12500000D03*
X16900000Y-17000000D03*
D20*
X17400000Y-28890000D03*
X17400000Y-30160000D03*
X17400000Y-31430000D03*
X17400000Y-32700000D03*
X17400000Y-33970000D03*
X17400000Y-35240000D03*
X17400000Y-36510000D03*
X22800000Y-36510000D03*
X22800000Y-35240000D03*
X22800000Y-33970000D03*
X22800000Y-32700000D03*
X22800000Y-31430000D03*
X22800000Y-30160000D03*
X22800000Y-28890000D03*
D21*
X25550000Y-24100000D03*
X27450000Y-24100000D03*
X26500000Y-22100000D03*
D10*
X27100000Y-12400000D03*
D22*
X27300000Y-19875000D02*
X27425000Y-20000000D01*
X27300000Y-17625000D02*
X27300000Y-19875000D01*
X27425000Y-24075000D02*
X27450000Y-24100000D01*
X27425000Y-20000000D02*
X27425000Y-24075000D01*
X23398372Y-25576628D02*
X22775000Y-26200000D01*
X23800010Y-25174990D02*
X23398372Y-25576628D01*
X27075010Y-25174990D02*
X23800010Y-25174990D01*
X27450000Y-24800000D02*
X27075010Y-25174990D01*
X27450000Y-24100000D02*
X27450000Y-24800000D01*
X21724999Y-30804999D02*
X22350000Y-31430000D01*
X22100000Y-26200000D02*
X21724999Y-26575001D01*
X21724999Y-26575001D02*
X21724999Y-30804999D01*
X22775000Y-26200000D02*
X22100000Y-26200000D01*
X21424999Y-41064999D02*
X21750001Y-41390001D01*
X21424999Y-32355001D02*
X21424999Y-41064999D01*
X21750001Y-41390001D02*
X22600000Y-42240000D01*
X22350000Y-31430000D02*
X21424999Y-32355001D01*
X22800000Y-31430000D02*
X22350000Y-31430000D01*
X22676628Y-24648372D02*
X23300000Y-24025000D01*
X15123372Y-24648372D02*
X22676628Y-24648372D01*
X14475000Y-24000000D02*
X15123372Y-24648372D01*
X13500000Y-24000000D02*
X14475000Y-24000000D01*
X25475000Y-24025000D02*
X25550000Y-24100000D01*
X23300000Y-24025000D02*
X25475000Y-24025000D01*
X18400000Y-23675000D02*
X20700000Y-23675000D01*
X20700000Y-26040000D02*
X20700000Y-25725000D01*
X17850000Y-28890000D02*
X20700000Y-26040000D01*
X17400000Y-28890000D02*
X17850000Y-28890000D01*
X22800000Y-39500000D02*
X22600000Y-39700000D01*
X22800000Y-36510000D02*
X22800000Y-39500000D01*
X20040000Y-39700000D02*
X20060000Y-39700000D01*
X17400000Y-37060000D02*
X20040000Y-39700000D01*
X17400000Y-36510000D02*
X17400000Y-37060000D01*
X16400000Y-35240000D02*
X16000000Y-35640000D01*
X17400000Y-35240000D02*
X16400000Y-35240000D01*
X16000000Y-38180000D02*
X17520000Y-39700000D01*
X16000000Y-35640000D02*
X16000000Y-38180000D01*
X24825000Y-15575000D02*
X23400000Y-17000000D01*
X27300000Y-15575000D02*
X24825000Y-15575000D01*
X12299990Y-21600010D02*
X15900001Y-17999999D01*
X15900001Y-17999999D02*
X16900000Y-17000000D01*
X12299990Y-37086950D02*
X12299990Y-21600010D01*
X14913040Y-39700000D02*
X12299990Y-37086950D01*
X17520000Y-39700000D02*
X14913040Y-39700000D01*
X16900000Y-17000000D02*
X23400000Y-17000000D01*
X14660000Y-30160000D02*
X13780000Y-29280000D01*
X17400000Y-30160000D02*
X14660000Y-30160000D01*
X14170000Y-31430000D02*
X13780000Y-31820000D01*
X17400000Y-31430000D02*
X14170000Y-31430000D01*
X15440000Y-32700000D02*
X13780000Y-34360000D01*
X17400000Y-32700000D02*
X15440000Y-32700000D01*
X14629999Y-36050001D02*
X13780000Y-36900000D01*
X16710000Y-33970000D02*
X14629999Y-36050001D01*
X17400000Y-33970000D02*
X16710000Y-33970000D01*
X24820000Y-35240000D02*
X26480000Y-36900000D01*
X22800000Y-35240000D02*
X24820000Y-35240000D01*
X26090000Y-33970000D02*
X26480000Y-34360000D01*
X22800000Y-33970000D02*
X26090000Y-33970000D01*
X24820000Y-30160000D02*
X26480000Y-31820000D01*
X22800000Y-30160000D02*
X24820000Y-30160000D01*
X26090000Y-28890000D02*
X26480000Y-29280000D01*
X22800000Y-28890000D02*
X26090000Y-28890000D01*
G04 #@! TA.AperFunction,Conductor*
G36*
X27291558Y-10490469D02*
G01*
X27669794Y-10570836D01*
X27679533Y-10574001D01*
X27961347Y-10699500D01*
X28032805Y-10731322D01*
X28041668Y-10736439D01*
X28354509Y-10963675D01*
X28362125Y-10970532D01*
X28620858Y-11257869D01*
X28626880Y-11266157D01*
X28820222Y-11601034D01*
X28824390Y-11610395D01*
X28943875Y-11978216D01*
X28946003Y-11988231D01*
X28987261Y-12380614D01*
X28987530Y-12385738D01*
X28987530Y-42370060D01*
X28987261Y-42375184D01*
X28946003Y-42767567D01*
X28943875Y-42777582D01*
X28824390Y-43145403D01*
X28820222Y-43154764D01*
X28626880Y-43489641D01*
X28620858Y-43497929D01*
X28362125Y-43785266D01*
X28354509Y-43792123D01*
X28041668Y-44019359D01*
X28032805Y-44024476D01*
X27679538Y-44181795D01*
X27669788Y-44184963D01*
X27291559Y-44265330D01*
X27281375Y-44266400D01*
X12894689Y-44266400D01*
X12884505Y-44265330D01*
X12506271Y-44184963D01*
X12496521Y-44181795D01*
X12143253Y-44024476D01*
X12134390Y-44019359D01*
X11821548Y-43792121D01*
X11813932Y-43785264D01*
X11555200Y-43497930D01*
X11549178Y-43489642D01*
X11355836Y-43154765D01*
X11351668Y-43145404D01*
X11275086Y-42909654D01*
X11232182Y-42777579D01*
X11230055Y-42767566D01*
X11206803Y-42546423D01*
X11188799Y-42375184D01*
X11188530Y-42370060D01*
X11188530Y-42188543D01*
X11399500Y-42188543D01*
X11399500Y-42411457D01*
X11428596Y-42632463D01*
X11428597Y-42632467D01*
X11428598Y-42632474D01*
X11486288Y-42847776D01*
X11486290Y-42847782D01*
X11571595Y-43053727D01*
X11683050Y-43246771D01*
X11683060Y-43246786D01*
X11818748Y-43423618D01*
X11818758Y-43423630D01*
X11976369Y-43581241D01*
X11976381Y-43581251D01*
X12153213Y-43716939D01*
X12153222Y-43716945D01*
X12153226Y-43716948D01*
X12346274Y-43828405D01*
X12552219Y-43913710D01*
X12552223Y-43913711D01*
X12767525Y-43971401D01*
X12767526Y-43971401D01*
X12767537Y-43971404D01*
X12988543Y-44000500D01*
X12988547Y-44000500D01*
X13211453Y-44000500D01*
X13211457Y-44000500D01*
X13432463Y-43971404D01*
X13647781Y-43913710D01*
X13853726Y-43828405D01*
X14046774Y-43716948D01*
X14223624Y-43581247D01*
X14381247Y-43423624D01*
X14514373Y-43250130D01*
X14516939Y-43246786D01*
X14516940Y-43246783D01*
X14516948Y-43246774D01*
X14628405Y-43053726D01*
X14713710Y-42847781D01*
X14771404Y-42632463D01*
X14800500Y-42411457D01*
X14800500Y-42188543D01*
X14773835Y-41985999D01*
X16499951Y-41985999D01*
X16499952Y-41986000D01*
X17089297Y-41986000D01*
X17054075Y-42047007D01*
X17020000Y-42174174D01*
X17020000Y-42305826D01*
X17054075Y-42432993D01*
X17089297Y-42494000D01*
X16499952Y-42494000D01*
X16510347Y-42546264D01*
X16510351Y-42546277D01*
X16589500Y-42737358D01*
X16704410Y-42909335D01*
X16850664Y-43055589D01*
X17022643Y-43170500D01*
X17213724Y-43249649D01*
X17213727Y-43249650D01*
X17265999Y-43260046D01*
X17266000Y-43260046D01*
X17266000Y-42670702D01*
X17327007Y-42705925D01*
X17454174Y-42740000D01*
X17585826Y-42740000D01*
X17712993Y-42705925D01*
X17774000Y-42670702D01*
X17774000Y-43260046D01*
X17826272Y-43249650D01*
X17826275Y-43249649D01*
X18017356Y-43170500D01*
X18189335Y-43055589D01*
X18335589Y-42909335D01*
X18450499Y-42737358D01*
X18529648Y-42546277D01*
X18529652Y-42546264D01*
X18540048Y-42494000D01*
X17950703Y-42494000D01*
X17985925Y-42432993D01*
X18020000Y-42305826D01*
X18020000Y-42174174D01*
X18009914Y-42136535D01*
X19009500Y-42136535D01*
X19009500Y-42343465D01*
X19027308Y-42432993D01*
X19049869Y-42546417D01*
X19049871Y-42546423D01*
X19129058Y-42737596D01*
X19129059Y-42737598D01*
X19244023Y-42909655D01*
X19390345Y-43055977D01*
X19562402Y-43170941D01*
X19753580Y-43250130D01*
X19956535Y-43290500D01*
X19956538Y-43290500D01*
X20163462Y-43290500D01*
X20163465Y-43290500D01*
X20366420Y-43250130D01*
X20557598Y-43170941D01*
X20729655Y-43055977D01*
X20875977Y-42909655D01*
X20990941Y-42737598D01*
X21070130Y-42546420D01*
X21110500Y-42343465D01*
X21110500Y-42136535D01*
X21070130Y-41933580D01*
X20990941Y-41742402D01*
X20875977Y-41570345D01*
X20729655Y-41424023D01*
X20557598Y-41309059D01*
X20557596Y-41309058D01*
X20366423Y-41229871D01*
X20366417Y-41229869D01*
X20284572Y-41213589D01*
X20163465Y-41189500D01*
X19956535Y-41189500D01*
X19855520Y-41209592D01*
X19753582Y-41229869D01*
X19753576Y-41229871D01*
X19562403Y-41309058D01*
X19390345Y-41424022D01*
X19244022Y-41570345D01*
X19129058Y-41742403D01*
X19049871Y-41933576D01*
X19049869Y-41933582D01*
X19039443Y-41985999D01*
X19009500Y-42136535D01*
X18009914Y-42136535D01*
X17985925Y-42047007D01*
X17950703Y-41986000D01*
X18540048Y-41986000D01*
X18540048Y-41985999D01*
X18529652Y-41933735D01*
X18529648Y-41933722D01*
X18450499Y-41742641D01*
X18335589Y-41570664D01*
X18189335Y-41424410D01*
X18017358Y-41309500D01*
X17826277Y-41230351D01*
X17826264Y-41230347D01*
X17774000Y-41219951D01*
X17774000Y-41809297D01*
X17712993Y-41774075D01*
X17585826Y-41740000D01*
X17454174Y-41740000D01*
X17327007Y-41774075D01*
X17266000Y-41809297D01*
X17266000Y-41219951D01*
X17265999Y-41219951D01*
X17213735Y-41230347D01*
X17213722Y-41230351D01*
X17022641Y-41309500D01*
X16850664Y-41424410D01*
X16704410Y-41570664D01*
X16589500Y-41742641D01*
X16510351Y-41933722D01*
X16510347Y-41933735D01*
X16499951Y-41985999D01*
X14773835Y-41985999D01*
X14771404Y-41967537D01*
X14762343Y-41933722D01*
X14713711Y-41752223D01*
X14713709Y-41752217D01*
X14638508Y-41570664D01*
X14628405Y-41546274D01*
X14516948Y-41353226D01*
X14516945Y-41353222D01*
X14516939Y-41353213D01*
X14381251Y-41176381D01*
X14381241Y-41176369D01*
X14223630Y-41018758D01*
X14223618Y-41018748D01*
X14046786Y-40883060D01*
X14046771Y-40883050D01*
X13853726Y-40771595D01*
X13853727Y-40771595D01*
X13647782Y-40686290D01*
X13647776Y-40686288D01*
X13432474Y-40628598D01*
X13432467Y-40628597D01*
X13432463Y-40628596D01*
X13211457Y-40599500D01*
X12988543Y-40599500D01*
X12767537Y-40628596D01*
X12767533Y-40628596D01*
X12767525Y-40628598D01*
X12552223Y-40686288D01*
X12552217Y-40686290D01*
X12346272Y-40771595D01*
X12153228Y-40883050D01*
X12153213Y-40883060D01*
X11976381Y-41018748D01*
X11976369Y-41018758D01*
X11818758Y-41176369D01*
X11818748Y-41176381D01*
X11683060Y-41353213D01*
X11683050Y-41353228D01*
X11571595Y-41546272D01*
X11486290Y-41752217D01*
X11486288Y-41752223D01*
X11428598Y-41967525D01*
X11428596Y-41967533D01*
X11428596Y-41967537D01*
X11399500Y-42188543D01*
X11188530Y-42188543D01*
X11188530Y-21557157D01*
X11974490Y-21557157D01*
X11974490Y-21560161D01*
X11974490Y-37129806D01*
X11996671Y-37212587D01*
X11996672Y-37212590D01*
X12039525Y-37286812D01*
X14650859Y-39898145D01*
X14650864Y-39898151D01*
X14652575Y-39899862D01*
X14713178Y-39960465D01*
X14750290Y-39981891D01*
X14787401Y-40003318D01*
X14798978Y-40006420D01*
X14870185Y-40025501D01*
X14870187Y-40025501D01*
X14958890Y-40025501D01*
X14958906Y-40025500D01*
X16485032Y-40025500D01*
X16519680Y-40039852D01*
X16530302Y-40055748D01*
X16574770Y-40163103D01*
X16589059Y-40197598D01*
X16704023Y-40369655D01*
X16850345Y-40515977D01*
X17022402Y-40630941D01*
X17213580Y-40710130D01*
X17416535Y-40750500D01*
X17416538Y-40750500D01*
X17623462Y-40750500D01*
X17623465Y-40750500D01*
X17826420Y-40710130D01*
X18017598Y-40630941D01*
X18189655Y-40515977D01*
X18335977Y-40369655D01*
X18450941Y-40197598D01*
X18530130Y-40006420D01*
X18570500Y-39803465D01*
X18570500Y-39596535D01*
X18530130Y-39393580D01*
X18450941Y-39202402D01*
X18335977Y-39030345D01*
X18189655Y-38884023D01*
X18017598Y-38769059D01*
X18012659Y-38767013D01*
X17826423Y-38689871D01*
X17826417Y-38689869D01*
X17744572Y-38673589D01*
X17623465Y-38649500D01*
X17416535Y-38649500D01*
X17264318Y-38679777D01*
X17213579Y-38689870D01*
X17213578Y-38689870D01*
X17071729Y-38748625D01*
X17034226Y-38748625D01*
X17018330Y-38738003D01*
X16339852Y-38059525D01*
X16325500Y-38024877D01*
X16325500Y-35795122D01*
X16339851Y-35760475D01*
X16427312Y-35673014D01*
X16461958Y-35658663D01*
X16496606Y-35673015D01*
X16502700Y-35680440D01*
X16505447Y-35684552D01*
X16532012Y-35702301D01*
X16571769Y-35728867D01*
X16630252Y-35740500D01*
X16630255Y-35740500D01*
X18169745Y-35740500D01*
X18169748Y-35740500D01*
X18228231Y-35728867D01*
X18294552Y-35684552D01*
X18338867Y-35618231D01*
X18350500Y-35559748D01*
X18350500Y-34920252D01*
X18338867Y-34861769D01*
X18312301Y-34822012D01*
X18294552Y-34795447D01*
X18254795Y-34768882D01*
X18228231Y-34751133D01*
X18169748Y-34739500D01*
X16630252Y-34739500D01*
X16571769Y-34751133D01*
X16505447Y-34795447D01*
X16461133Y-34861768D01*
X16461133Y-34861769D01*
X16458489Y-34875060D01*
X16437654Y-34906242D01*
X16410431Y-34914500D01*
X16357144Y-34914500D01*
X16354392Y-34915237D01*
X16317211Y-34910337D01*
X16294384Y-34880581D01*
X16299284Y-34843400D01*
X16307064Y-34833261D01*
X16655474Y-34484852D01*
X16690122Y-34470500D01*
X18169745Y-34470500D01*
X18169748Y-34470500D01*
X18228231Y-34458867D01*
X18294552Y-34414552D01*
X18338867Y-34348231D01*
X18350500Y-34289748D01*
X18350500Y-33650252D01*
X18338867Y-33591769D01*
X18306963Y-33544022D01*
X18294552Y-33525447D01*
X18254795Y-33498882D01*
X18228231Y-33481133D01*
X18169748Y-33469500D01*
X16630252Y-33469500D01*
X16571769Y-33481133D01*
X16505447Y-33525447D01*
X16461134Y-33591768D01*
X16461133Y-33591769D01*
X16449500Y-33650252D01*
X16449500Y-33650255D01*
X16449500Y-33749876D01*
X16435148Y-33784524D01*
X14423244Y-35796428D01*
X14281668Y-35938003D01*
X14247020Y-35952355D01*
X14228269Y-35948625D01*
X14086427Y-35889872D01*
X14086417Y-35889869D01*
X14004572Y-35873589D01*
X13883465Y-35849500D01*
X13676535Y-35849500D01*
X13575520Y-35869592D01*
X13473582Y-35889869D01*
X13473576Y-35889871D01*
X13282403Y-35969058D01*
X13110345Y-36084022D01*
X12964022Y-36230345D01*
X12849058Y-36402403D01*
X12769871Y-36593576D01*
X12769869Y-36593582D01*
X12749592Y-36695520D01*
X12729500Y-36796535D01*
X12729500Y-36796538D01*
X12729500Y-36937837D01*
X12715148Y-36972485D01*
X12680500Y-36986837D01*
X12645852Y-36972485D01*
X12639842Y-36966475D01*
X12625490Y-36931827D01*
X12625490Y-34256535D01*
X12729500Y-34256535D01*
X12729500Y-34463465D01*
X12756290Y-34598150D01*
X12769869Y-34666417D01*
X12769871Y-34666423D01*
X12843178Y-34843400D01*
X12849059Y-34857598D01*
X12964023Y-35029655D01*
X13110345Y-35175977D01*
X13282402Y-35290941D01*
X13473580Y-35370130D01*
X13676535Y-35410500D01*
X13676538Y-35410500D01*
X13883462Y-35410500D01*
X13883465Y-35410500D01*
X14086420Y-35370130D01*
X14277598Y-35290941D01*
X14449655Y-35175977D01*
X14595977Y-35029655D01*
X14710941Y-34857598D01*
X14790130Y-34666420D01*
X14830500Y-34463465D01*
X14830500Y-34256535D01*
X14790130Y-34053580D01*
X14731373Y-33911729D01*
X14731373Y-33874227D01*
X14741992Y-33858333D01*
X15560474Y-33039852D01*
X15595122Y-33025500D01*
X16410431Y-33025500D01*
X16445079Y-33039852D01*
X16458489Y-33064939D01*
X16461094Y-33078036D01*
X16461133Y-33078231D01*
X16505447Y-33144552D01*
X16532012Y-33162301D01*
X16571769Y-33188867D01*
X16630252Y-33200500D01*
X16630255Y-33200500D01*
X18169745Y-33200500D01*
X18169748Y-33200500D01*
X18228231Y-33188867D01*
X18294552Y-33144552D01*
X18338867Y-33078231D01*
X18350500Y-33019748D01*
X18350500Y-32380252D01*
X18338867Y-32321769D01*
X18312301Y-32282012D01*
X18294552Y-32255447D01*
X18254795Y-32228882D01*
X18228231Y-32211133D01*
X18169748Y-32199500D01*
X16630252Y-32199500D01*
X16571769Y-32211133D01*
X16505447Y-32255447D01*
X16461133Y-32321768D01*
X16461133Y-32321769D01*
X16458489Y-32335060D01*
X16437654Y-32366242D01*
X16410431Y-32374500D01*
X15485866Y-32374500D01*
X15485850Y-32374499D01*
X15482853Y-32374499D01*
X15397148Y-32374499D01*
X15397146Y-32374499D01*
X15314363Y-32396681D01*
X15314359Y-32396682D01*
X15240137Y-32439535D01*
X15240137Y-32439536D01*
X15179533Y-32500140D01*
X14281668Y-33398003D01*
X14247020Y-33412355D01*
X14228269Y-33408625D01*
X14086427Y-33349872D01*
X14086417Y-33349869D01*
X14004572Y-33333589D01*
X13883465Y-33309500D01*
X13676535Y-33309500D01*
X13575520Y-33329592D01*
X13473582Y-33349869D01*
X13473576Y-33349871D01*
X13282403Y-33429058D01*
X13110345Y-33544022D01*
X12964022Y-33690345D01*
X12849058Y-33862403D01*
X12769871Y-34053576D01*
X12769869Y-34053582D01*
X12749592Y-34155520D01*
X12729500Y-34256535D01*
X12625490Y-34256535D01*
X12625490Y-31716535D01*
X12729500Y-31716535D01*
X12729500Y-31923465D01*
X12756290Y-32058150D01*
X12769869Y-32126417D01*
X12769871Y-32126423D01*
X12849058Y-32317596D01*
X12849059Y-32317598D01*
X12890923Y-32380252D01*
X12954549Y-32475477D01*
X12964023Y-32489655D01*
X13110345Y-32635977D01*
X13282402Y-32750941D01*
X13473580Y-32830130D01*
X13676535Y-32870500D01*
X13676538Y-32870500D01*
X13883462Y-32870500D01*
X13883465Y-32870500D01*
X14086420Y-32830130D01*
X14277598Y-32750941D01*
X14449655Y-32635977D01*
X14595977Y-32489655D01*
X14710941Y-32317598D01*
X14790130Y-32126420D01*
X14830500Y-31923465D01*
X14830500Y-31804500D01*
X14844852Y-31769852D01*
X14879500Y-31755500D01*
X16410431Y-31755500D01*
X16445079Y-31769852D01*
X16458489Y-31794939D01*
X16460391Y-31804500D01*
X16461133Y-31808231D01*
X16505447Y-31874552D01*
X16532012Y-31892301D01*
X16571769Y-31918867D01*
X16630252Y-31930500D01*
X16630255Y-31930500D01*
X18169745Y-31930500D01*
X18169748Y-31930500D01*
X18228231Y-31918867D01*
X18294552Y-31874552D01*
X18338867Y-31808231D01*
X18350500Y-31749748D01*
X18350500Y-31110252D01*
X18338867Y-31051769D01*
X18306963Y-31004022D01*
X18294552Y-30985447D01*
X18254795Y-30958882D01*
X18228231Y-30941133D01*
X18169748Y-30929500D01*
X16630252Y-30929500D01*
X16571769Y-30941133D01*
X16505447Y-30985447D01*
X16461133Y-31051768D01*
X16461133Y-31051769D01*
X16458489Y-31065060D01*
X16437654Y-31096242D01*
X16410431Y-31104500D01*
X14570428Y-31104500D01*
X14535780Y-31090148D01*
X14449654Y-31004022D01*
X14316643Y-30915148D01*
X14277598Y-30889059D01*
X14277596Y-30889058D01*
X14086423Y-30809871D01*
X14086417Y-30809869D01*
X14004572Y-30793589D01*
X13883465Y-30769500D01*
X13676535Y-30769500D01*
X13575520Y-30789592D01*
X13473582Y-30809869D01*
X13473576Y-30809871D01*
X13282403Y-30889058D01*
X13110345Y-31004022D01*
X12964022Y-31150345D01*
X12849058Y-31322403D01*
X12769871Y-31513576D01*
X12769869Y-31513582D01*
X12749592Y-31615520D01*
X12729500Y-31716535D01*
X12625490Y-31716535D01*
X12625490Y-28410252D01*
X12729500Y-28410252D01*
X12729500Y-30149748D01*
X12741133Y-30208231D01*
X12758712Y-30234539D01*
X12785447Y-30274552D01*
X12812012Y-30292301D01*
X12851769Y-30318867D01*
X12910252Y-30330500D01*
X14349877Y-30330500D01*
X14384525Y-30344852D01*
X14460138Y-30420465D01*
X14534361Y-30463318D01*
X14595665Y-30479744D01*
X14617143Y-30485499D01*
X14617144Y-30485500D01*
X14617147Y-30485500D01*
X16410431Y-30485500D01*
X16445079Y-30499852D01*
X16458489Y-30524939D01*
X16461133Y-30538230D01*
X16461133Y-30538231D01*
X16505447Y-30604552D01*
X16532012Y-30622301D01*
X16571769Y-30648867D01*
X16630252Y-30660500D01*
X16630255Y-30660500D01*
X18169745Y-30660500D01*
X18169748Y-30660500D01*
X18228231Y-30648867D01*
X18294552Y-30604552D01*
X18338867Y-30538231D01*
X18350500Y-30479748D01*
X18350500Y-29840252D01*
X18338867Y-29781769D01*
X18312301Y-29742012D01*
X18294552Y-29715447D01*
X18254795Y-29688882D01*
X18228231Y-29671133D01*
X18169748Y-29659500D01*
X16630252Y-29659500D01*
X16571769Y-29671133D01*
X16505447Y-29715447D01*
X16461133Y-29781768D01*
X16461133Y-29781769D01*
X16458489Y-29795060D01*
X16437654Y-29826242D01*
X16410431Y-29834500D01*
X14879500Y-29834500D01*
X14844852Y-29820148D01*
X14830500Y-29785500D01*
X14830500Y-28410255D01*
X14830500Y-28410252D01*
X14818867Y-28351769D01*
X14792301Y-28312012D01*
X14774552Y-28285447D01*
X14734795Y-28258882D01*
X14708231Y-28241133D01*
X14649748Y-28229500D01*
X12910252Y-28229500D01*
X12851769Y-28241133D01*
X12785447Y-28285447D01*
X12748663Y-28340500D01*
X12741133Y-28351769D01*
X12729500Y-28410252D01*
X12625490Y-28410252D01*
X12625490Y-26104191D01*
X17500001Y-26104191D01*
X17500002Y-26104215D01*
X17502850Y-26134602D01*
X17502851Y-26134608D01*
X17547651Y-26262640D01*
X17547655Y-26262648D01*
X17628207Y-26371792D01*
X17737351Y-26452344D01*
X17737359Y-26452348D01*
X17865395Y-26497149D01*
X17895785Y-26499999D01*
X18145999Y-26499999D01*
X18654000Y-26499999D01*
X18904191Y-26499999D01*
X18904215Y-26499997D01*
X18934602Y-26497149D01*
X18934608Y-26497148D01*
X19062640Y-26452348D01*
X19062648Y-26452344D01*
X19171792Y-26371792D01*
X19252344Y-26262648D01*
X19252348Y-26262640D01*
X19297149Y-26134605D01*
X19297149Y-26134603D01*
X19299998Y-26104214D01*
X19300000Y-26104193D01*
X19300000Y-25979000D01*
X18654000Y-25979000D01*
X18654000Y-26499999D01*
X18145999Y-26499999D01*
X18146000Y-26499998D01*
X18146000Y-25979000D01*
X17500001Y-25979000D01*
X17500001Y-26104191D01*
X12625490Y-26104191D01*
X12625490Y-24809034D01*
X12639842Y-24774386D01*
X12674490Y-24760034D01*
X12690667Y-24762782D01*
X12790301Y-24797646D01*
X12820734Y-24800500D01*
X12820744Y-24800500D01*
X14179256Y-24800500D01*
X14179266Y-24800500D01*
X14209699Y-24797646D01*
X14337882Y-24752793D01*
X14340989Y-24750500D01*
X14447148Y-24672152D01*
X14447148Y-24672150D01*
X14447150Y-24672150D01*
X14515114Y-24580060D01*
X14547233Y-24560707D01*
X14583634Y-24569734D01*
X14589185Y-24574512D01*
X14862906Y-24848233D01*
X14862907Y-24848234D01*
X14923510Y-24908837D01*
X14933362Y-24914525D01*
X14997731Y-24951689D01*
X14997733Y-24951689D01*
X14997734Y-24951690D01*
X15063023Y-24969184D01*
X15080515Y-24973871D01*
X15080516Y-24973872D01*
X15080519Y-24973872D01*
X15166224Y-24973872D01*
X17620668Y-24973872D01*
X17655316Y-24988224D01*
X17669668Y-25022872D01*
X17655316Y-25057520D01*
X17649766Y-25062297D01*
X17628206Y-25078209D01*
X17547655Y-25187351D01*
X17547651Y-25187359D01*
X17502850Y-25315394D01*
X17502850Y-25315396D01*
X17500001Y-25345785D01*
X17500000Y-25345806D01*
X17500000Y-25471000D01*
X19299999Y-25471000D01*
X19299999Y-25345808D01*
X19299997Y-25345784D01*
X19297149Y-25315397D01*
X19297148Y-25315391D01*
X19252348Y-25187359D01*
X19252344Y-25187351D01*
X19171793Y-25078209D01*
X19150234Y-25062297D01*
X19130879Y-25030175D01*
X19139907Y-24993774D01*
X19172029Y-24974419D01*
X19179332Y-24973872D01*
X19919826Y-24973872D01*
X19954474Y-24988224D01*
X19968826Y-25022872D01*
X19954474Y-25057520D01*
X19948927Y-25062294D01*
X19942825Y-25066797D01*
X19927847Y-25077851D01*
X19847208Y-25187114D01*
X19847204Y-25187123D01*
X19802353Y-25315300D01*
X19802353Y-25315301D01*
X19799500Y-25345724D01*
X19799500Y-26104275D01*
X19802353Y-26134698D01*
X19802353Y-26134699D01*
X19847204Y-26262877D01*
X19847205Y-26262880D01*
X19894178Y-26326528D01*
X19903205Y-26362928D01*
X19889400Y-26390272D01*
X17904525Y-28375148D01*
X17869877Y-28389500D01*
X16630252Y-28389500D01*
X16571769Y-28401133D01*
X16505447Y-28445447D01*
X16461134Y-28511768D01*
X16461133Y-28511769D01*
X16449500Y-28570252D01*
X16449500Y-29209748D01*
X16461133Y-29268231D01*
X16478882Y-29294795D01*
X16505447Y-29334552D01*
X16532012Y-29352301D01*
X16571769Y-29378867D01*
X16630252Y-29390500D01*
X16630255Y-29390500D01*
X18169745Y-29390500D01*
X18169748Y-29390500D01*
X18228231Y-29378867D01*
X18294552Y-29334552D01*
X18338867Y-29268231D01*
X18350500Y-29209748D01*
X18350500Y-28870122D01*
X18364852Y-28835474D01*
X20685474Y-26514852D01*
X20720122Y-26500500D01*
X21204256Y-26500500D01*
X21204266Y-26500500D01*
X21234699Y-26497646D01*
X21339241Y-26461065D01*
X21376684Y-26463167D01*
X21401674Y-26491131D01*
X21402754Y-26519997D01*
X21399499Y-26532144D01*
X21399499Y-30847855D01*
X21421680Y-30930636D01*
X21421681Y-30930639D01*
X21464534Y-31004861D01*
X21835148Y-31375475D01*
X21849500Y-31410123D01*
X21849500Y-31449877D01*
X21835148Y-31484525D01*
X21164535Y-32155138D01*
X21164534Y-32155138D01*
X21121681Y-32229360D01*
X21121680Y-32229363D01*
X21103177Y-32298414D01*
X21103178Y-32298415D01*
X21099499Y-32312147D01*
X21099499Y-39218144D01*
X21085147Y-39252792D01*
X21050499Y-39267144D01*
X21015851Y-39252792D01*
X21005229Y-39236896D01*
X20998844Y-39221482D01*
X20990941Y-39202402D01*
X20875977Y-39030345D01*
X20729655Y-38884023D01*
X20557598Y-38769059D01*
X20552659Y-38767013D01*
X20366423Y-38689871D01*
X20366417Y-38689869D01*
X20284572Y-38673589D01*
X20163465Y-38649500D01*
X19956535Y-38649500D01*
X19804318Y-38679777D01*
X19753579Y-38689870D01*
X19753578Y-38689870D01*
X19597587Y-38754483D01*
X19560084Y-38754483D01*
X19544188Y-38743861D01*
X17894475Y-37094148D01*
X17880123Y-37059500D01*
X17894475Y-37024852D01*
X17929123Y-37010500D01*
X18169745Y-37010500D01*
X18169748Y-37010500D01*
X18228231Y-36998867D01*
X18294552Y-36954552D01*
X18338867Y-36888231D01*
X18350500Y-36829748D01*
X18350500Y-36190252D01*
X18338867Y-36131769D01*
X18306963Y-36084022D01*
X18294552Y-36065447D01*
X18254795Y-36038882D01*
X18228231Y-36021133D01*
X18169748Y-36009500D01*
X16630252Y-36009500D01*
X16571769Y-36021133D01*
X16505447Y-36065447D01*
X16461133Y-36131769D01*
X16449500Y-36190252D01*
X16449500Y-36829748D01*
X16461133Y-36888231D01*
X16478882Y-36914795D01*
X16505447Y-36954552D01*
X16532012Y-36972301D01*
X16571769Y-36998867D01*
X16630252Y-37010500D01*
X17025500Y-37010500D01*
X17060148Y-37024852D01*
X17074500Y-37059500D01*
X17074500Y-37102856D01*
X17096681Y-37185637D01*
X17096682Y-37185640D01*
X17139535Y-37259862D01*
X19092146Y-39212473D01*
X19106498Y-39247121D01*
X19102768Y-39265872D01*
X19049870Y-39393578D01*
X19049870Y-39393579D01*
X19039777Y-39444318D01*
X19009500Y-39596535D01*
X19009500Y-39803465D01*
X19036290Y-39938150D01*
X19049869Y-40006417D01*
X19049871Y-40006423D01*
X19114771Y-40163104D01*
X19129059Y-40197598D01*
X19244023Y-40369655D01*
X19390345Y-40515977D01*
X19562402Y-40630941D01*
X19753580Y-40710130D01*
X19956535Y-40750500D01*
X19956538Y-40750500D01*
X20163462Y-40750500D01*
X20163465Y-40750500D01*
X20366420Y-40710130D01*
X20557598Y-40630941D01*
X20729655Y-40515977D01*
X20875977Y-40369655D01*
X20990941Y-40197598D01*
X21005229Y-40163104D01*
X21031747Y-40136585D01*
X21069250Y-40136585D01*
X21095769Y-40163103D01*
X21099499Y-40181855D01*
X21099499Y-41107855D01*
X21121680Y-41190636D01*
X21121681Y-41190639D01*
X21164534Y-41264861D01*
X21638003Y-41738330D01*
X21652355Y-41772978D01*
X21648625Y-41791729D01*
X21589870Y-41933578D01*
X21589870Y-41933579D01*
X21589842Y-41933722D01*
X21549500Y-42136535D01*
X21549500Y-42343465D01*
X21567308Y-42432993D01*
X21589869Y-42546417D01*
X21589871Y-42546423D01*
X21669058Y-42737596D01*
X21669059Y-42737598D01*
X21784023Y-42909655D01*
X21930345Y-43055977D01*
X22102402Y-43170941D01*
X22293580Y-43250130D01*
X22496535Y-43290500D01*
X22496538Y-43290500D01*
X22703462Y-43290500D01*
X22703465Y-43290500D01*
X22906420Y-43250130D01*
X23097598Y-43170941D01*
X23269655Y-43055977D01*
X23415977Y-42909655D01*
X23530941Y-42737598D01*
X23610130Y-42546420D01*
X23650500Y-42343465D01*
X23650500Y-42188543D01*
X25399500Y-42188543D01*
X25399500Y-42411457D01*
X25428596Y-42632463D01*
X25428597Y-42632467D01*
X25428598Y-42632474D01*
X25486288Y-42847776D01*
X25486290Y-42847782D01*
X25571595Y-43053727D01*
X25683050Y-43246771D01*
X25683060Y-43246786D01*
X25818748Y-43423618D01*
X25818758Y-43423630D01*
X25976369Y-43581241D01*
X25976381Y-43581251D01*
X26153213Y-43716939D01*
X26153222Y-43716945D01*
X26153226Y-43716948D01*
X26346274Y-43828405D01*
X26552219Y-43913710D01*
X26552223Y-43913711D01*
X26767525Y-43971401D01*
X26767526Y-43971401D01*
X26767537Y-43971404D01*
X26988543Y-44000500D01*
X26988547Y-44000500D01*
X27211453Y-44000500D01*
X27211457Y-44000500D01*
X27432463Y-43971404D01*
X27647781Y-43913710D01*
X27853726Y-43828405D01*
X28046774Y-43716948D01*
X28223624Y-43581247D01*
X28381247Y-43423624D01*
X28514373Y-43250130D01*
X28516939Y-43246786D01*
X28516940Y-43246783D01*
X28516948Y-43246774D01*
X28628405Y-43053726D01*
X28713710Y-42847781D01*
X28771404Y-42632463D01*
X28800500Y-42411457D01*
X28800500Y-42188543D01*
X28771404Y-41967537D01*
X28762343Y-41933722D01*
X28713711Y-41752223D01*
X28713709Y-41752217D01*
X28638508Y-41570664D01*
X28628405Y-41546274D01*
X28516948Y-41353226D01*
X28516945Y-41353222D01*
X28516939Y-41353213D01*
X28381251Y-41176381D01*
X28381241Y-41176369D01*
X28223630Y-41018758D01*
X28223618Y-41018748D01*
X28046786Y-40883060D01*
X28046771Y-40883050D01*
X27853726Y-40771595D01*
X27853727Y-40771595D01*
X27647782Y-40686290D01*
X27647776Y-40686288D01*
X27432474Y-40628598D01*
X27432467Y-40628597D01*
X27432463Y-40628596D01*
X27211457Y-40599500D01*
X26988543Y-40599500D01*
X26767537Y-40628596D01*
X26767533Y-40628596D01*
X26767525Y-40628598D01*
X26552223Y-40686288D01*
X26552217Y-40686290D01*
X26346272Y-40771595D01*
X26153228Y-40883050D01*
X26153213Y-40883060D01*
X25976381Y-41018748D01*
X25976369Y-41018758D01*
X25818758Y-41176369D01*
X25818748Y-41176381D01*
X25683060Y-41353213D01*
X25683050Y-41353228D01*
X25571595Y-41546272D01*
X25486290Y-41752217D01*
X25486288Y-41752223D01*
X25428598Y-41967525D01*
X25428596Y-41967533D01*
X25428596Y-41967537D01*
X25399500Y-42188543D01*
X23650500Y-42188543D01*
X23650500Y-42136535D01*
X23610130Y-41933580D01*
X23530941Y-41742402D01*
X23415977Y-41570345D01*
X23269655Y-41424023D01*
X23097598Y-41309059D01*
X23097596Y-41309058D01*
X22906423Y-41229871D01*
X22906417Y-41229869D01*
X22824572Y-41213589D01*
X22703465Y-41189500D01*
X22496535Y-41189500D01*
X22344318Y-41219777D01*
X22293579Y-41229870D01*
X22293578Y-41229870D01*
X22151729Y-41288625D01*
X22114226Y-41288625D01*
X22098330Y-41278003D01*
X21764851Y-40944524D01*
X21750499Y-40909876D01*
X21750499Y-40799500D01*
X21764851Y-40764852D01*
X21799499Y-40750500D01*
X23469745Y-40750500D01*
X23469748Y-40750500D01*
X23528231Y-40738867D01*
X23594552Y-40694552D01*
X23638867Y-40628231D01*
X23650500Y-40569748D01*
X23650500Y-38830252D01*
X23638867Y-38771769D01*
X23612301Y-38732012D01*
X23594552Y-38705447D01*
X23554795Y-38678882D01*
X23528231Y-38661133D01*
X23469748Y-38649500D01*
X23469745Y-38649500D01*
X23174500Y-38649500D01*
X23139852Y-38635148D01*
X23125500Y-38600500D01*
X23125500Y-37059500D01*
X23139852Y-37024852D01*
X23174500Y-37010500D01*
X23569745Y-37010500D01*
X23569748Y-37010500D01*
X23628231Y-36998867D01*
X23694552Y-36954552D01*
X23738867Y-36888231D01*
X23750500Y-36829748D01*
X23750500Y-36190252D01*
X23738867Y-36131769D01*
X23706963Y-36084022D01*
X23694552Y-36065447D01*
X23654795Y-36038882D01*
X23628231Y-36021133D01*
X23569748Y-36009500D01*
X22030252Y-36009500D01*
X21971769Y-36021133D01*
X21905447Y-36065447D01*
X21861133Y-36131769D01*
X21849500Y-36190252D01*
X21849500Y-36829748D01*
X21861133Y-36888231D01*
X21878882Y-36914795D01*
X21905447Y-36954552D01*
X21932012Y-36972301D01*
X21971769Y-36998867D01*
X22030252Y-37010500D01*
X22425500Y-37010500D01*
X22460148Y-37024852D01*
X22474500Y-37059500D01*
X22474500Y-38600500D01*
X22460148Y-38635148D01*
X22425500Y-38649500D01*
X21799499Y-38649500D01*
X21764851Y-38635148D01*
X21750499Y-38600500D01*
X21750499Y-34920252D01*
X21849500Y-34920252D01*
X21849500Y-35559748D01*
X21861133Y-35618231D01*
X21878882Y-35644795D01*
X21905447Y-35684552D01*
X21932012Y-35702301D01*
X21971769Y-35728867D01*
X22030252Y-35740500D01*
X22030255Y-35740500D01*
X23569745Y-35740500D01*
X23569748Y-35740500D01*
X23628231Y-35728867D01*
X23694552Y-35684552D01*
X23738867Y-35618231D01*
X23741510Y-35604939D01*
X23762346Y-35573758D01*
X23789569Y-35565500D01*
X24664877Y-35565500D01*
X24699525Y-35579852D01*
X25518003Y-36398330D01*
X25532355Y-36432978D01*
X25528625Y-36451729D01*
X25469870Y-36593578D01*
X25469870Y-36593579D01*
X25459777Y-36644318D01*
X25429500Y-36796535D01*
X25429500Y-37003465D01*
X25449270Y-37102856D01*
X25469869Y-37206417D01*
X25469871Y-37206423D01*
X25549058Y-37397596D01*
X25549059Y-37397598D01*
X25664023Y-37569655D01*
X25810345Y-37715977D01*
X25982402Y-37830941D01*
X26173580Y-37910130D01*
X26376535Y-37950500D01*
X26376538Y-37950500D01*
X26583462Y-37950500D01*
X26583465Y-37950500D01*
X26786420Y-37910130D01*
X26977598Y-37830941D01*
X27149655Y-37715977D01*
X27295977Y-37569655D01*
X27410941Y-37397598D01*
X27490130Y-37206420D01*
X27530500Y-37003465D01*
X27530500Y-36796535D01*
X27490130Y-36593580D01*
X27410941Y-36402402D01*
X27295977Y-36230345D01*
X27149655Y-36084023D01*
X27121855Y-36065448D01*
X27038123Y-36009500D01*
X26977598Y-35969059D01*
X26977596Y-35969058D01*
X26786423Y-35889871D01*
X26786417Y-35889869D01*
X26704572Y-35873589D01*
X26583465Y-35849500D01*
X26376535Y-35849500D01*
X26224318Y-35879777D01*
X26173579Y-35889870D01*
X26173578Y-35889870D01*
X26031729Y-35948625D01*
X25994226Y-35948625D01*
X25978330Y-35938003D01*
X25019862Y-34979535D01*
X24945640Y-34936682D01*
X24945637Y-34936681D01*
X24862856Y-34914500D01*
X24862853Y-34914500D01*
X23789569Y-34914500D01*
X23754921Y-34900148D01*
X23741510Y-34875060D01*
X23738867Y-34861769D01*
X23719816Y-34833257D01*
X23694552Y-34795447D01*
X23654795Y-34768882D01*
X23628231Y-34751133D01*
X23569748Y-34739500D01*
X22030252Y-34739500D01*
X21971769Y-34751133D01*
X21905447Y-34795447D01*
X21880184Y-34833257D01*
X21861133Y-34861769D01*
X21849500Y-34920252D01*
X21750499Y-34920252D01*
X21750499Y-33650252D01*
X21849500Y-33650252D01*
X21849500Y-34289748D01*
X21861133Y-34348231D01*
X21878882Y-34374795D01*
X21905447Y-34414552D01*
X21932012Y-34432301D01*
X21971769Y-34458867D01*
X22030252Y-34470500D01*
X22030255Y-34470500D01*
X23569745Y-34470500D01*
X23569748Y-34470500D01*
X23628231Y-34458867D01*
X23694552Y-34414552D01*
X23738867Y-34348231D01*
X23741510Y-34334939D01*
X23762346Y-34303758D01*
X23789569Y-34295500D01*
X25380500Y-34295500D01*
X25415148Y-34309852D01*
X25429500Y-34344500D01*
X25429500Y-34463465D01*
X25456290Y-34598150D01*
X25469869Y-34666417D01*
X25469871Y-34666423D01*
X25543178Y-34843400D01*
X25549059Y-34857598D01*
X25664023Y-35029655D01*
X25810345Y-35175977D01*
X25982402Y-35290941D01*
X26173580Y-35370130D01*
X26376535Y-35410500D01*
X26376538Y-35410500D01*
X26583462Y-35410500D01*
X26583465Y-35410500D01*
X26786420Y-35370130D01*
X26977598Y-35290941D01*
X27149655Y-35175977D01*
X27295977Y-35029655D01*
X27410941Y-34857598D01*
X27490130Y-34666420D01*
X27530500Y-34463465D01*
X27530500Y-34256535D01*
X27490130Y-34053580D01*
X27410941Y-33862402D01*
X27295977Y-33690345D01*
X27149655Y-33544023D01*
X27121855Y-33525448D01*
X27038123Y-33469500D01*
X26977598Y-33429059D01*
X26977596Y-33429058D01*
X26786423Y-33349871D01*
X26786417Y-33349869D01*
X26704572Y-33333589D01*
X26583465Y-33309500D01*
X26376535Y-33309500D01*
X26275520Y-33329592D01*
X26173582Y-33349869D01*
X26173576Y-33349871D01*
X25982403Y-33429058D01*
X25810345Y-33544022D01*
X25724220Y-33630148D01*
X25689572Y-33644500D01*
X23789569Y-33644500D01*
X23754921Y-33630148D01*
X23741510Y-33605060D01*
X23738867Y-33591769D01*
X23706963Y-33544022D01*
X23694552Y-33525447D01*
X23654795Y-33498882D01*
X23628231Y-33481133D01*
X23569748Y-33469500D01*
X22030252Y-33469500D01*
X21971769Y-33481133D01*
X21905447Y-33525447D01*
X21861134Y-33591768D01*
X21861133Y-33591769D01*
X21849500Y-33650252D01*
X21750499Y-33650252D01*
X21750499Y-33019694D01*
X21850000Y-33019694D01*
X21861604Y-33078036D01*
X21905807Y-33144192D01*
X21971963Y-33188395D01*
X22030305Y-33200000D01*
X22546000Y-33200000D01*
X23054000Y-33200000D01*
X23569695Y-33200000D01*
X23628036Y-33188395D01*
X23694192Y-33144192D01*
X23738395Y-33078036D01*
X23750000Y-33019694D01*
X23750000Y-32954000D01*
X23054000Y-32954000D01*
X23054000Y-33200000D01*
X22546000Y-33200000D01*
X22546000Y-32954000D01*
X21850000Y-32954000D01*
X21850000Y-33019694D01*
X21750499Y-33019694D01*
X21750499Y-32510124D01*
X21764850Y-32475477D01*
X21787515Y-32452811D01*
X21822162Y-32438459D01*
X21840368Y-32446000D01*
X22546000Y-32446000D01*
X23054000Y-32446000D01*
X23750000Y-32446000D01*
X23750000Y-32380305D01*
X23738395Y-32321963D01*
X23694192Y-32255807D01*
X23628036Y-32211604D01*
X23569695Y-32200000D01*
X23054000Y-32200000D01*
X23054000Y-32446000D01*
X22546000Y-32446000D01*
X22546000Y-32200000D01*
X22158623Y-32200000D01*
X22123975Y-32185648D01*
X22109623Y-32151000D01*
X22123975Y-32116352D01*
X22295475Y-31944852D01*
X22330123Y-31930500D01*
X23569745Y-31930500D01*
X23569748Y-31930500D01*
X23628231Y-31918867D01*
X23694552Y-31874552D01*
X23738867Y-31808231D01*
X23750500Y-31749748D01*
X23750500Y-31110252D01*
X23738867Y-31051769D01*
X23706963Y-31004022D01*
X23694552Y-30985447D01*
X23654795Y-30958882D01*
X23628231Y-30941133D01*
X23569748Y-30929500D01*
X23569745Y-30929500D01*
X22330123Y-30929500D01*
X22295475Y-30915148D01*
X22124475Y-30744148D01*
X22110123Y-30709500D01*
X22124475Y-30674852D01*
X22159123Y-30660500D01*
X23569745Y-30660500D01*
X23569748Y-30660500D01*
X23628231Y-30648867D01*
X23694552Y-30604552D01*
X23738867Y-30538231D01*
X23741510Y-30524939D01*
X23762346Y-30493758D01*
X23789569Y-30485500D01*
X24664877Y-30485500D01*
X24699525Y-30499852D01*
X25518003Y-31318330D01*
X25532355Y-31352978D01*
X25528625Y-31371729D01*
X25469870Y-31513578D01*
X25469870Y-31513579D01*
X25459777Y-31564318D01*
X25429500Y-31716535D01*
X25429500Y-31923465D01*
X25456290Y-32058150D01*
X25469869Y-32126417D01*
X25469871Y-32126423D01*
X25549058Y-32317596D01*
X25549059Y-32317598D01*
X25590923Y-32380252D01*
X25654549Y-32475477D01*
X25664023Y-32489655D01*
X25810345Y-32635977D01*
X25982402Y-32750941D01*
X26173580Y-32830130D01*
X26376535Y-32870500D01*
X26376538Y-32870500D01*
X26583462Y-32870500D01*
X26583465Y-32870500D01*
X26786420Y-32830130D01*
X26977598Y-32750941D01*
X27149655Y-32635977D01*
X27295977Y-32489655D01*
X27410941Y-32317598D01*
X27490130Y-32126420D01*
X27530500Y-31923465D01*
X27530500Y-31716535D01*
X27490130Y-31513580D01*
X27410941Y-31322402D01*
X27295977Y-31150345D01*
X27149655Y-31004023D01*
X27121855Y-30985448D01*
X27016643Y-30915148D01*
X26977598Y-30889059D01*
X26977596Y-30889058D01*
X26786423Y-30809871D01*
X26786417Y-30809869D01*
X26704572Y-30793589D01*
X26583465Y-30769500D01*
X26376535Y-30769500D01*
X26224318Y-30799777D01*
X26173579Y-30809870D01*
X26173578Y-30809870D01*
X26031729Y-30868625D01*
X25994226Y-30868625D01*
X25978330Y-30858003D01*
X25525460Y-30405133D01*
X25511108Y-30370485D01*
X25525460Y-30335837D01*
X25560108Y-30321485D01*
X25569664Y-30322426D01*
X25610252Y-30330500D01*
X25610253Y-30330500D01*
X27349745Y-30330500D01*
X27349748Y-30330500D01*
X27408231Y-30318867D01*
X27474552Y-30274552D01*
X27518867Y-30208231D01*
X27530500Y-30149748D01*
X27530500Y-28410252D01*
X27518867Y-28351769D01*
X27492301Y-28312012D01*
X27474552Y-28285447D01*
X27434795Y-28258882D01*
X27408231Y-28241133D01*
X27349748Y-28229500D01*
X25610252Y-28229500D01*
X25551769Y-28241133D01*
X25485447Y-28285447D01*
X25448663Y-28340500D01*
X25441133Y-28351769D01*
X25429500Y-28410252D01*
X25429500Y-28410255D01*
X25429500Y-28515500D01*
X25415148Y-28550148D01*
X25380500Y-28564500D01*
X23789569Y-28564500D01*
X23754921Y-28550148D01*
X23741510Y-28525060D01*
X23738867Y-28511769D01*
X23724162Y-28489762D01*
X23694552Y-28445447D01*
X23654795Y-28418882D01*
X23628231Y-28401133D01*
X23569748Y-28389500D01*
X23569745Y-28389500D01*
X22099499Y-28389500D01*
X22064851Y-28375148D01*
X22050499Y-28340500D01*
X22050499Y-27012126D01*
X22064851Y-26977478D01*
X22099499Y-26963126D01*
X22128596Y-26972701D01*
X22237114Y-27052791D01*
X22237117Y-27052792D01*
X22237118Y-27052793D01*
X22237120Y-27052793D01*
X22237123Y-27052795D01*
X22363878Y-27097148D01*
X22365301Y-27097646D01*
X22395734Y-27100500D01*
X22395744Y-27100500D01*
X23154256Y-27100500D01*
X23154266Y-27100500D01*
X23184699Y-27097646D01*
X23312882Y-27052793D01*
X23313491Y-27052344D01*
X23422150Y-26972150D01*
X23502791Y-26862885D01*
X23502791Y-26862884D01*
X23502793Y-26862882D01*
X23547646Y-26734699D01*
X23550500Y-26704266D01*
X23550500Y-26704191D01*
X24050001Y-26704191D01*
X24050002Y-26704215D01*
X24052850Y-26734602D01*
X24052851Y-26734608D01*
X24097651Y-26862640D01*
X24097655Y-26862648D01*
X24178207Y-26971792D01*
X24287351Y-27052344D01*
X24287359Y-27052348D01*
X24415395Y-27097149D01*
X24445785Y-27099999D01*
X24570999Y-27099999D01*
X25079000Y-27099999D01*
X25204191Y-27099999D01*
X25204215Y-27099997D01*
X25234602Y-27097149D01*
X25234608Y-27097148D01*
X25362640Y-27052348D01*
X25362648Y-27052344D01*
X25471792Y-26971792D01*
X25552344Y-26862648D01*
X25552348Y-26862640D01*
X25597149Y-26734605D01*
X25597149Y-26734603D01*
X25599998Y-26704214D01*
X25600000Y-26704193D01*
X25600000Y-26454000D01*
X25079000Y-26454000D01*
X25079000Y-27099999D01*
X24570999Y-27099999D01*
X24571000Y-27099998D01*
X24571000Y-26454000D01*
X24050001Y-26454000D01*
X24050001Y-26704191D01*
X23550500Y-26704191D01*
X23550500Y-25905123D01*
X23564852Y-25870475D01*
X23920485Y-25514842D01*
X23955133Y-25500490D01*
X24041494Y-25500490D01*
X24076142Y-25514842D01*
X24090494Y-25549490D01*
X24087744Y-25565673D01*
X24052850Y-25665394D01*
X24052850Y-25665396D01*
X24050001Y-25695785D01*
X24050000Y-25695806D01*
X24050000Y-25946000D01*
X25599999Y-25946000D01*
X25599999Y-25695808D01*
X25599997Y-25695784D01*
X25597149Y-25665397D01*
X25597148Y-25665391D01*
X25562256Y-25565673D01*
X25564359Y-25528229D01*
X25592323Y-25503240D01*
X25608506Y-25500490D01*
X27117866Y-25500490D01*
X27117866Y-25500489D01*
X27200649Y-25478308D01*
X27274872Y-25435455D01*
X27710465Y-24999862D01*
X27753318Y-24925639D01*
X27775499Y-24842856D01*
X27775500Y-24842856D01*
X27775500Y-24799500D01*
X27789852Y-24764852D01*
X27824500Y-24750500D01*
X27869745Y-24750500D01*
X27869748Y-24750500D01*
X27928231Y-24738867D01*
X27994552Y-24694552D01*
X28038867Y-24628231D01*
X28050500Y-24569748D01*
X28050500Y-23630252D01*
X28038867Y-23571769D01*
X28012301Y-23532012D01*
X27994552Y-23505447D01*
X27954795Y-23478882D01*
X27928231Y-23461133D01*
X27869748Y-23449500D01*
X27869745Y-23449500D01*
X27799500Y-23449500D01*
X27764852Y-23435148D01*
X27750500Y-23400500D01*
X27750500Y-20949500D01*
X27764852Y-20914852D01*
X27799500Y-20900500D01*
X27804256Y-20900500D01*
X27804266Y-20900500D01*
X27834699Y-20897646D01*
X27962882Y-20852793D01*
X27963491Y-20852344D01*
X28072150Y-20772150D01*
X28152791Y-20662885D01*
X28152791Y-20662884D01*
X28152793Y-20662882D01*
X28197646Y-20534699D01*
X28200500Y-20504266D01*
X28200500Y-19495734D01*
X28197646Y-19465301D01*
X28152877Y-19337359D01*
X28152795Y-19337123D01*
X28152791Y-19337114D01*
X28072150Y-19227849D01*
X27962885Y-19147208D01*
X27962876Y-19147204D01*
X27834698Y-19102353D01*
X27804275Y-19099500D01*
X27804266Y-19099500D01*
X27674500Y-19099500D01*
X27639852Y-19085148D01*
X27625500Y-19050500D01*
X27625500Y-18449500D01*
X27639852Y-18414852D01*
X27674500Y-18400500D01*
X27804256Y-18400500D01*
X27804266Y-18400500D01*
X27834699Y-18397646D01*
X27962882Y-18352793D01*
X28072150Y-18272150D01*
X28125030Y-18200500D01*
X28152791Y-18162885D01*
X28152791Y-18162884D01*
X28152793Y-18162882D01*
X28197646Y-18034699D01*
X28200500Y-18004266D01*
X28200500Y-17245734D01*
X28197646Y-17215301D01*
X28155369Y-17094481D01*
X28152795Y-17087123D01*
X28152791Y-17087114D01*
X28072150Y-16977849D01*
X27962885Y-16897208D01*
X27962876Y-16897204D01*
X27834698Y-16852353D01*
X27804275Y-16849500D01*
X27804266Y-16849500D01*
X26795734Y-16849500D01*
X26795724Y-16849500D01*
X26765301Y-16852353D01*
X26765300Y-16852353D01*
X26637123Y-16897204D01*
X26637114Y-16897208D01*
X26527849Y-16977849D01*
X26447208Y-17087114D01*
X26447204Y-17087123D01*
X26402353Y-17215300D01*
X26402353Y-17215301D01*
X26399500Y-17245724D01*
X26399500Y-18004275D01*
X26402353Y-18034698D01*
X26402353Y-18034699D01*
X26447204Y-18162876D01*
X26447208Y-18162885D01*
X26527849Y-18272150D01*
X26637114Y-18352791D01*
X26637117Y-18352792D01*
X26637118Y-18352793D01*
X26637120Y-18352793D01*
X26637123Y-18352795D01*
X26765301Y-18397646D01*
X26795734Y-18400500D01*
X26925500Y-18400500D01*
X26960148Y-18414852D01*
X26974500Y-18449500D01*
X26974500Y-19081863D01*
X26960148Y-19116511D01*
X26941684Y-19128113D01*
X26887115Y-19147208D01*
X26777849Y-19227849D01*
X26697208Y-19337114D01*
X26697204Y-19337123D01*
X26652353Y-19465300D01*
X26652353Y-19465301D01*
X26649500Y-19495724D01*
X26649500Y-20504275D01*
X26652353Y-20534698D01*
X26652353Y-20534699D01*
X26697204Y-20662876D01*
X26697208Y-20662885D01*
X26777849Y-20772150D01*
X26887114Y-20852791D01*
X26887117Y-20852792D01*
X26887118Y-20852793D01*
X26887120Y-20852793D01*
X26887123Y-20852795D01*
X27013878Y-20897148D01*
X27015301Y-20897646D01*
X27045734Y-20900500D01*
X27050500Y-20900500D01*
X27085148Y-20914852D01*
X27099500Y-20949500D01*
X27099500Y-21451090D01*
X27085148Y-21485738D01*
X27050500Y-21500090D01*
X27023278Y-21491833D01*
X26978035Y-21461604D01*
X26919695Y-21450000D01*
X26754000Y-21450000D01*
X26754000Y-22750000D01*
X26919695Y-22750000D01*
X26978036Y-22738395D01*
X27023277Y-22708167D01*
X27060060Y-22700851D01*
X27091242Y-22721686D01*
X27099500Y-22748909D01*
X27099500Y-23400500D01*
X27085148Y-23435148D01*
X27050500Y-23449500D01*
X27030252Y-23449500D01*
X26971769Y-23461133D01*
X26905447Y-23505447D01*
X26865455Y-23565301D01*
X26861133Y-23571769D01*
X26849500Y-23630252D01*
X26849500Y-24569748D01*
X26861133Y-24628231D01*
X26878882Y-24654795D01*
X26905447Y-24694552D01*
X26940564Y-24718016D01*
X26969504Y-24737353D01*
X26990339Y-24768535D01*
X26983023Y-24805318D01*
X26976930Y-24812742D01*
X26954536Y-24835137D01*
X26919888Y-24849490D01*
X23974933Y-24849490D01*
X23940285Y-24835138D01*
X23925933Y-24800490D01*
X23940285Y-24765842D01*
X23958749Y-24754240D01*
X23961509Y-24753273D01*
X23962882Y-24752793D01*
X24072150Y-24672150D01*
X24152793Y-24562882D01*
X24197646Y-24434699D01*
X24200500Y-24404266D01*
X24200500Y-24399500D01*
X24214852Y-24364852D01*
X24249500Y-24350500D01*
X24900500Y-24350500D01*
X24935148Y-24364852D01*
X24949500Y-24399500D01*
X24949500Y-24569748D01*
X24961133Y-24628231D01*
X24978882Y-24654795D01*
X25005447Y-24694552D01*
X25032012Y-24712301D01*
X25071769Y-24738867D01*
X25130252Y-24750500D01*
X25130255Y-24750500D01*
X25969745Y-24750500D01*
X25969748Y-24750500D01*
X26028231Y-24738867D01*
X26094552Y-24694552D01*
X26138867Y-24628231D01*
X26150500Y-24569748D01*
X26150500Y-23630252D01*
X26138867Y-23571769D01*
X26112301Y-23532012D01*
X26094552Y-23505447D01*
X26054795Y-23478882D01*
X26028231Y-23461133D01*
X25969748Y-23449500D01*
X25130252Y-23449500D01*
X25071769Y-23461133D01*
X25005447Y-23505447D01*
X24965455Y-23565301D01*
X24961133Y-23571769D01*
X24949500Y-23630252D01*
X24949500Y-23630255D01*
X24949500Y-23650500D01*
X24935148Y-23685148D01*
X24900500Y-23699500D01*
X24249500Y-23699500D01*
X24214852Y-23685148D01*
X24200500Y-23650500D01*
X24200500Y-23645743D01*
X24200499Y-23645724D01*
X24197646Y-23615301D01*
X24197646Y-23615300D01*
X24152795Y-23487123D01*
X24152791Y-23487114D01*
X24072150Y-23377849D01*
X23962885Y-23297208D01*
X23962876Y-23297204D01*
X23834698Y-23252353D01*
X23804275Y-23249500D01*
X23804266Y-23249500D01*
X22795734Y-23249500D01*
X22795724Y-23249500D01*
X22765301Y-23252353D01*
X22765300Y-23252353D01*
X22637123Y-23297204D01*
X22637114Y-23297208D01*
X22527849Y-23377849D01*
X22447208Y-23487114D01*
X22447204Y-23487123D01*
X22402353Y-23615300D01*
X22402353Y-23615301D01*
X22399500Y-23645724D01*
X22399500Y-24273872D01*
X22385148Y-24308520D01*
X22350500Y-24322872D01*
X21568681Y-24322872D01*
X21534033Y-24308520D01*
X21519681Y-24273872D01*
X21529256Y-24244775D01*
X21552791Y-24212885D01*
X21552791Y-24212884D01*
X21552793Y-24212882D01*
X21597646Y-24084699D01*
X21600500Y-24054266D01*
X21600500Y-23295734D01*
X21597646Y-23265301D01*
X21593115Y-23252353D01*
X21552795Y-23137123D01*
X21552791Y-23137114D01*
X21472150Y-23027849D01*
X21362885Y-22947208D01*
X21362876Y-22947204D01*
X21234698Y-22902353D01*
X21204275Y-22899500D01*
X21204266Y-22899500D01*
X20195734Y-22899500D01*
X20195724Y-22899500D01*
X20165301Y-22902353D01*
X20165300Y-22902353D01*
X20037123Y-22947204D01*
X20037114Y-22947208D01*
X19927849Y-23027849D01*
X19847208Y-23137114D01*
X19847204Y-23137123D01*
X19802353Y-23265300D01*
X19802353Y-23265301D01*
X19799500Y-23295724D01*
X19799500Y-23300500D01*
X19785148Y-23335148D01*
X19750500Y-23349500D01*
X19349500Y-23349500D01*
X19314852Y-23335148D01*
X19300500Y-23300500D01*
X19300500Y-23295743D01*
X19300499Y-23295724D01*
X19297646Y-23265301D01*
X19297646Y-23265300D01*
X19252795Y-23137123D01*
X19252791Y-23137114D01*
X19172150Y-23027849D01*
X19062885Y-22947208D01*
X19062876Y-22947204D01*
X18934698Y-22902353D01*
X18904275Y-22899500D01*
X18904266Y-22899500D01*
X17895734Y-22899500D01*
X17895724Y-22899500D01*
X17865301Y-22902353D01*
X17865300Y-22902353D01*
X17737123Y-22947204D01*
X17737114Y-22947208D01*
X17627849Y-23027849D01*
X17547208Y-23137114D01*
X17547204Y-23137123D01*
X17502353Y-23265300D01*
X17502353Y-23265301D01*
X17499500Y-23295724D01*
X17499500Y-24054275D01*
X17502353Y-24084698D01*
X17502353Y-24084699D01*
X17547204Y-24212876D01*
X17547208Y-24212885D01*
X17570744Y-24244775D01*
X17579772Y-24281175D01*
X17560416Y-24313297D01*
X17531319Y-24322872D01*
X15278495Y-24322872D01*
X15243847Y-24308520D01*
X14674864Y-23739537D01*
X14674862Y-23739535D01*
X14627576Y-23712234D01*
X14599999Y-23696312D01*
X14577169Y-23666558D01*
X14575500Y-23653877D01*
X14575500Y-23595743D01*
X14575499Y-23595724D01*
X14572646Y-23565301D01*
X14572646Y-23565300D01*
X14527795Y-23437123D01*
X14527791Y-23437114D01*
X14447150Y-23327849D01*
X14337885Y-23247208D01*
X14337876Y-23247204D01*
X14209698Y-23202353D01*
X14179275Y-23199500D01*
X14179266Y-23199500D01*
X12820734Y-23199500D01*
X12820724Y-23199500D01*
X12790301Y-23202353D01*
X12790300Y-23202353D01*
X12690673Y-23237214D01*
X12653229Y-23235111D01*
X12628240Y-23207147D01*
X12625490Y-23190964D01*
X12625490Y-22650157D01*
X12639842Y-22615509D01*
X12674490Y-22601157D01*
X12709138Y-22615509D01*
X12715030Y-22621401D01*
X12846063Y-22708953D01*
X12991641Y-22769254D01*
X12991651Y-22769257D01*
X13146210Y-22800000D01*
X13246000Y-22800000D01*
X13246000Y-22276330D01*
X13269745Y-22300075D01*
X13355255Y-22349444D01*
X13450630Y-22375000D01*
X13549370Y-22375000D01*
X13644745Y-22349444D01*
X13730255Y-22300075D01*
X13754000Y-22276330D01*
X13754000Y-22800000D01*
X13853790Y-22800000D01*
X14008348Y-22769257D01*
X14008358Y-22769254D01*
X14153936Y-22708953D01*
X14284969Y-22621401D01*
X14396401Y-22509969D01*
X14483953Y-22378936D01*
X14494203Y-22354191D01*
X22400001Y-22354191D01*
X22400002Y-22354215D01*
X22402850Y-22384602D01*
X22402851Y-22384608D01*
X22447651Y-22512640D01*
X22447655Y-22512648D01*
X22528207Y-22621792D01*
X22637351Y-22702344D01*
X22637359Y-22702348D01*
X22765395Y-22747149D01*
X22795785Y-22749999D01*
X23045999Y-22749999D01*
X23554000Y-22749999D01*
X23804191Y-22749999D01*
X23804215Y-22749997D01*
X23834602Y-22747149D01*
X23834608Y-22747148D01*
X23962640Y-22702348D01*
X23962648Y-22702344D01*
X24071792Y-22621792D01*
X24110242Y-22569694D01*
X25900000Y-22569694D01*
X25911604Y-22628036D01*
X25955807Y-22694192D01*
X26021963Y-22738395D01*
X26080305Y-22750000D01*
X26246000Y-22750000D01*
X26246000Y-22354000D01*
X25900000Y-22354000D01*
X25900000Y-22569694D01*
X24110242Y-22569694D01*
X24152344Y-22512648D01*
X24152348Y-22512640D01*
X24197149Y-22384605D01*
X24197149Y-22384603D01*
X24199998Y-22354214D01*
X24200000Y-22354193D01*
X24200000Y-22229000D01*
X23554000Y-22229000D01*
X23554000Y-22749999D01*
X23045999Y-22749999D01*
X23046000Y-22749998D01*
X23046000Y-22229000D01*
X22400001Y-22229000D01*
X22400001Y-22354191D01*
X14494203Y-22354191D01*
X14535704Y-22254000D01*
X13776330Y-22254000D01*
X13800075Y-22230255D01*
X13849444Y-22144745D01*
X13875000Y-22049370D01*
X13875000Y-21950630D01*
X13849444Y-21855255D01*
X13800075Y-21769745D01*
X13776330Y-21746000D01*
X14535704Y-21746000D01*
X14535704Y-21745999D01*
X14483953Y-21621063D01*
X14483951Y-21621059D01*
X14467078Y-21595806D01*
X22400000Y-21595806D01*
X22400000Y-21721000D01*
X23046000Y-21721000D01*
X23554000Y-21721000D01*
X24199999Y-21721000D01*
X24199999Y-21630305D01*
X25900000Y-21630305D01*
X25900000Y-21846000D01*
X26246000Y-21846000D01*
X26246000Y-21450000D01*
X26080305Y-21450000D01*
X26021963Y-21461604D01*
X25955807Y-21505807D01*
X25911604Y-21571963D01*
X25900000Y-21630305D01*
X24199999Y-21630305D01*
X24199999Y-21595808D01*
X24199997Y-21595784D01*
X24197149Y-21565397D01*
X24197148Y-21565391D01*
X24152348Y-21437359D01*
X24152344Y-21437351D01*
X24071792Y-21328207D01*
X23962648Y-21247655D01*
X23962640Y-21247651D01*
X23834604Y-21202850D01*
X23804214Y-21200001D01*
X23804193Y-21200000D01*
X23554000Y-21200000D01*
X23554000Y-21721000D01*
X23046000Y-21721000D01*
X23046000Y-21200000D01*
X22795808Y-21200000D01*
X22795784Y-21200002D01*
X22765397Y-21202850D01*
X22765391Y-21202851D01*
X22637359Y-21247651D01*
X22637351Y-21247655D01*
X22528207Y-21328207D01*
X22447655Y-21437351D01*
X22447651Y-21437359D01*
X22402850Y-21565394D01*
X22402850Y-21565396D01*
X22400001Y-21595785D01*
X22400000Y-21595806D01*
X14467078Y-21595806D01*
X14396401Y-21490030D01*
X14284969Y-21378598D01*
X14153936Y-21291046D01*
X14008358Y-21230745D01*
X14008348Y-21230742D01*
X13853790Y-21200000D01*
X13754000Y-21200000D01*
X13754000Y-21723670D01*
X13730255Y-21699925D01*
X13644745Y-21650556D01*
X13549370Y-21625000D01*
X13450630Y-21625000D01*
X13355255Y-21650556D01*
X13269745Y-21699925D01*
X13246000Y-21723670D01*
X13246000Y-21200000D01*
X13237811Y-21191811D01*
X13223459Y-21157163D01*
X13237810Y-21122516D01*
X13856135Y-20504191D01*
X24600001Y-20504191D01*
X24600002Y-20504215D01*
X24602850Y-20534602D01*
X24602851Y-20534608D01*
X24647651Y-20662640D01*
X24647655Y-20662648D01*
X24728207Y-20771792D01*
X24837351Y-20852344D01*
X24837359Y-20852348D01*
X24965395Y-20897149D01*
X24995785Y-20899999D01*
X25120999Y-20899999D01*
X25629000Y-20899999D01*
X25754191Y-20899999D01*
X25754215Y-20899997D01*
X25784602Y-20897149D01*
X25784608Y-20897148D01*
X25912640Y-20852348D01*
X25912648Y-20852344D01*
X26021792Y-20771792D01*
X26102344Y-20662648D01*
X26102348Y-20662640D01*
X26147149Y-20534605D01*
X26147149Y-20534603D01*
X26149998Y-20504214D01*
X26150000Y-20504193D01*
X26150000Y-20254000D01*
X25629000Y-20254000D01*
X25629000Y-20899999D01*
X25120999Y-20899999D01*
X25121000Y-20899998D01*
X25121000Y-20254000D01*
X24600001Y-20254000D01*
X24600001Y-20504191D01*
X13856135Y-20504191D01*
X14864521Y-19495806D01*
X24600000Y-19495806D01*
X24600000Y-19746000D01*
X25121000Y-19746000D01*
X25629000Y-19746000D01*
X26149999Y-19746000D01*
X26149999Y-19495808D01*
X26149997Y-19495784D01*
X26147149Y-19465397D01*
X26147148Y-19465391D01*
X26102348Y-19337359D01*
X26102344Y-19337351D01*
X26021792Y-19228207D01*
X25912648Y-19147655D01*
X25912640Y-19147651D01*
X25784604Y-19102850D01*
X25754214Y-19100001D01*
X25754193Y-19100000D01*
X25629000Y-19100000D01*
X25629000Y-19746000D01*
X25121000Y-19746000D01*
X25121000Y-19100000D01*
X24995808Y-19100000D01*
X24995784Y-19100002D01*
X24965397Y-19102850D01*
X24965391Y-19102851D01*
X24837359Y-19147651D01*
X24837351Y-19147655D01*
X24728207Y-19228207D01*
X24647655Y-19337351D01*
X24647651Y-19337359D01*
X24602850Y-19465394D01*
X24602850Y-19465396D01*
X24600001Y-19495785D01*
X24600000Y-19495806D01*
X14864521Y-19495806D01*
X16160466Y-18199861D01*
X16287207Y-18073118D01*
X16321855Y-18058767D01*
X16344100Y-18064108D01*
X16439168Y-18112547D01*
X16618882Y-18170940D01*
X16805519Y-18200500D01*
X16805520Y-18200500D01*
X16994480Y-18200500D01*
X16994481Y-18200500D01*
X17181118Y-18170940D01*
X17360832Y-18112547D01*
X17529199Y-18026760D01*
X17682073Y-17915690D01*
X17815690Y-17782073D01*
X17926760Y-17629199D01*
X18012547Y-17460832D01*
X18045518Y-17359358D01*
X18069875Y-17330841D01*
X18092120Y-17325500D01*
X22207880Y-17325500D01*
X22242528Y-17339852D01*
X22254482Y-17359358D01*
X22287453Y-17460833D01*
X22373236Y-17629193D01*
X22373239Y-17629197D01*
X22373240Y-17629199D01*
X22484310Y-17782073D01*
X22484312Y-17782075D01*
X22484315Y-17782079D01*
X22617920Y-17915684D01*
X22617923Y-17915686D01*
X22617927Y-17915690D01*
X22770801Y-18026760D01*
X22770803Y-18026761D01*
X22770806Y-18026763D01*
X22861786Y-18073119D01*
X22939168Y-18112547D01*
X23118882Y-18170940D01*
X23305519Y-18200500D01*
X23305520Y-18200500D01*
X23494480Y-18200500D01*
X23494481Y-18200500D01*
X23681118Y-18170940D01*
X23860832Y-18112547D01*
X24029199Y-18026760D01*
X24182073Y-17915690D01*
X24315690Y-17782073D01*
X24426760Y-17629199D01*
X24512547Y-17460832D01*
X24570940Y-17281118D01*
X24600500Y-17094481D01*
X24600500Y-16905519D01*
X24570940Y-16718882D01*
X24512547Y-16539168D01*
X24464108Y-16444100D01*
X24461165Y-16406713D01*
X24473119Y-16387207D01*
X24945475Y-15914852D01*
X24980123Y-15900500D01*
X26350500Y-15900500D01*
X26385148Y-15914852D01*
X26399500Y-15949500D01*
X26399500Y-15954275D01*
X26402353Y-15984698D01*
X26402353Y-15984699D01*
X26447204Y-16112876D01*
X26447208Y-16112885D01*
X26527849Y-16222150D01*
X26637114Y-16302791D01*
X26637117Y-16302792D01*
X26637118Y-16302793D01*
X26637120Y-16302793D01*
X26637123Y-16302795D01*
X26765301Y-16347646D01*
X26795734Y-16350500D01*
X26795744Y-16350500D01*
X27804256Y-16350500D01*
X27804266Y-16350500D01*
X27834699Y-16347646D01*
X27962882Y-16302793D01*
X28072150Y-16222150D01*
X28152793Y-16112882D01*
X28197646Y-15984699D01*
X28200500Y-15954266D01*
X28200500Y-15195734D01*
X28197646Y-15165301D01*
X28152793Y-15037118D01*
X28152792Y-15037117D01*
X28152791Y-15037114D01*
X28072150Y-14927849D01*
X27962885Y-14847208D01*
X27962876Y-14847204D01*
X27834698Y-14802353D01*
X27804275Y-14799500D01*
X27804266Y-14799500D01*
X26795734Y-14799500D01*
X26795724Y-14799500D01*
X26765301Y-14802353D01*
X26765300Y-14802353D01*
X26637123Y-14847204D01*
X26637114Y-14847208D01*
X26527849Y-14927849D01*
X26447208Y-15037114D01*
X26447204Y-15037123D01*
X26402353Y-15165300D01*
X26402353Y-15165301D01*
X26399500Y-15195724D01*
X26399500Y-15200500D01*
X26385148Y-15235148D01*
X26350500Y-15249500D01*
X24782144Y-15249500D01*
X24699363Y-15271681D01*
X24699359Y-15271682D01*
X24625137Y-15314535D01*
X24625136Y-15314536D01*
X24012791Y-15926880D01*
X23978143Y-15941232D01*
X23955899Y-15935891D01*
X23886439Y-15900500D01*
X23860833Y-15887453D01*
X23681118Y-15829060D01*
X23681115Y-15829059D01*
X23537744Y-15806352D01*
X23494481Y-15799500D01*
X23305519Y-15799500D01*
X23270397Y-15805062D01*
X23118884Y-15829059D01*
X23118881Y-15829060D01*
X22939166Y-15887453D01*
X22770806Y-15973236D01*
X22617920Y-16084315D01*
X22484315Y-16217920D01*
X22373236Y-16370806D01*
X22287453Y-16539166D01*
X22254482Y-16640642D01*
X22230125Y-16669159D01*
X22207880Y-16674500D01*
X18092120Y-16674500D01*
X18057472Y-16660148D01*
X18045518Y-16640642D01*
X18012546Y-16539166D01*
X17926763Y-16370806D01*
X17926761Y-16370803D01*
X17926760Y-16370801D01*
X17815690Y-16217927D01*
X17815686Y-16217923D01*
X17815684Y-16217920D01*
X17682079Y-16084315D01*
X17682080Y-16084315D01*
X17652600Y-16062897D01*
X17529199Y-15973240D01*
X17529197Y-15973239D01*
X17529193Y-15973236D01*
X17360833Y-15887453D01*
X17181118Y-15829060D01*
X17181115Y-15829059D01*
X17037744Y-15806352D01*
X16994481Y-15799500D01*
X16805519Y-15799500D01*
X16770397Y-15805062D01*
X16618884Y-15829059D01*
X16618881Y-15829060D01*
X16439166Y-15887453D01*
X16270806Y-15973236D01*
X16117920Y-16084315D01*
X15984315Y-16217920D01*
X15873236Y-16370806D01*
X15787453Y-16539166D01*
X15729060Y-16718881D01*
X15729059Y-16718884D01*
X15699500Y-16905519D01*
X15699500Y-17094480D01*
X15729059Y-17281115D01*
X15729060Y-17281118D01*
X15787453Y-17460833D01*
X15835891Y-17555899D01*
X15838834Y-17593286D01*
X15826880Y-17612792D01*
X15700139Y-17739534D01*
X12039526Y-21400147D01*
X12039525Y-21400147D01*
X11996672Y-21474369D01*
X11995056Y-21480402D01*
X11974490Y-21557157D01*
X11188530Y-21557157D01*
X11188530Y-12385738D01*
X11188799Y-12380614D01*
X11198480Y-12288543D01*
X11399500Y-12288543D01*
X11399500Y-12511457D01*
X11428596Y-12732463D01*
X11428597Y-12732467D01*
X11428598Y-12732474D01*
X11486288Y-12947776D01*
X11486290Y-12947782D01*
X11571595Y-13153727D01*
X11683050Y-13346771D01*
X11683060Y-13346786D01*
X11818748Y-13523618D01*
X11818758Y-13523630D01*
X11976369Y-13681241D01*
X11976381Y-13681251D01*
X12153213Y-13816939D01*
X12153222Y-13816945D01*
X12153226Y-13816948D01*
X12346274Y-13928405D01*
X12552219Y-14013710D01*
X12552223Y-14013711D01*
X12767525Y-14071401D01*
X12767526Y-14071401D01*
X12767537Y-14071404D01*
X12988543Y-14100500D01*
X12988547Y-14100500D01*
X13211453Y-14100500D01*
X13211457Y-14100500D01*
X13432463Y-14071404D01*
X13647781Y-14013710D01*
X13853726Y-13928405D01*
X14046774Y-13816948D01*
X14223624Y-13681247D01*
X14381247Y-13523624D01*
X14391500Y-13510262D01*
X14428718Y-13461759D01*
X14516939Y-13346786D01*
X14516940Y-13346783D01*
X14516948Y-13346774D01*
X14628405Y-13153726D01*
X14713710Y-12947781D01*
X14771404Y-12732463D01*
X14800500Y-12511457D01*
X14800500Y-12405558D01*
X15700000Y-12405558D01*
X15700000Y-12594441D01*
X15729547Y-12780998D01*
X15729548Y-12781001D01*
X15787915Y-12960638D01*
X15873668Y-13128937D01*
X15889736Y-13151052D01*
X16375016Y-12665771D01*
X16387482Y-12712292D01*
X16459890Y-12837708D01*
X16562292Y-12940110D01*
X16687708Y-13012518D01*
X16734226Y-13024982D01*
X16248945Y-13510263D01*
X16271063Y-13526331D01*
X16439361Y-13612084D01*
X16618998Y-13670451D01*
X16619001Y-13670452D01*
X16805559Y-13700000D01*
X16994441Y-13700000D01*
X17180998Y-13670452D01*
X17181001Y-13670451D01*
X17360638Y-13612084D01*
X17528937Y-13526331D01*
X17551052Y-13510262D01*
X17065772Y-13024982D01*
X17112292Y-13012518D01*
X17237708Y-12940110D01*
X17340110Y-12837708D01*
X17412518Y-12712292D01*
X17424982Y-12665772D01*
X17910262Y-13151052D01*
X17926331Y-13128937D01*
X18012084Y-12960638D01*
X18070451Y-12781001D01*
X18070452Y-12780998D01*
X18100000Y-12594441D01*
X18100000Y-12405558D01*
X22200000Y-12405558D01*
X22200000Y-12594441D01*
X22229547Y-12780998D01*
X22229548Y-12781001D01*
X22287915Y-12960638D01*
X22373668Y-13128937D01*
X22389736Y-13151052D01*
X22875016Y-12665771D01*
X22887482Y-12712292D01*
X22959890Y-12837708D01*
X23062292Y-12940110D01*
X23187708Y-13012518D01*
X23234226Y-13024982D01*
X22748945Y-13510263D01*
X22771063Y-13526331D01*
X22939361Y-13612084D01*
X23118998Y-13670451D01*
X23119001Y-13670452D01*
X23305559Y-13700000D01*
X23494441Y-13700000D01*
X23680998Y-13670452D01*
X23681001Y-13670451D01*
X23860638Y-13612084D01*
X24028937Y-13526331D01*
X24051052Y-13510262D01*
X23565772Y-13024982D01*
X23612292Y-13012518D01*
X23737708Y-12940110D01*
X23840110Y-12837708D01*
X23912518Y-12712292D01*
X23924982Y-12665772D01*
X24410262Y-13151052D01*
X24426331Y-13128937D01*
X24512084Y-12960638D01*
X24570451Y-12781001D01*
X24570452Y-12780998D01*
X24600000Y-12594441D01*
X24600000Y-12405558D01*
X24582427Y-12294604D01*
X24581467Y-12288543D01*
X25399500Y-12288543D01*
X25399500Y-12511457D01*
X25428596Y-12732463D01*
X25428597Y-12732467D01*
X25428598Y-12732474D01*
X25486288Y-12947776D01*
X25486290Y-12947782D01*
X25571595Y-13153727D01*
X25683050Y-13346771D01*
X25683060Y-13346786D01*
X25818748Y-13523618D01*
X25818758Y-13523630D01*
X25976369Y-13681241D01*
X25976381Y-13681251D01*
X26153213Y-13816939D01*
X26153222Y-13816945D01*
X26153226Y-13816948D01*
X26346274Y-13928405D01*
X26552219Y-14013710D01*
X26552223Y-14013711D01*
X26767525Y-14071401D01*
X26767526Y-14071401D01*
X26767537Y-14071404D01*
X26988543Y-14100500D01*
X26988547Y-14100500D01*
X27211453Y-14100500D01*
X27211457Y-14100500D01*
X27432463Y-14071404D01*
X27647781Y-14013710D01*
X27853726Y-13928405D01*
X28046774Y-13816948D01*
X28223624Y-13681247D01*
X28381247Y-13523624D01*
X28516948Y-13346774D01*
X28628405Y-13153726D01*
X28713710Y-12947781D01*
X28771404Y-12732463D01*
X28800500Y-12511457D01*
X28800500Y-12288543D01*
X28771404Y-12067537D01*
X28750154Y-11988232D01*
X28713711Y-11852223D01*
X28713709Y-11852217D01*
X28628404Y-11646272D01*
X28516949Y-11453228D01*
X28516939Y-11453213D01*
X28381251Y-11276381D01*
X28381241Y-11276369D01*
X28223630Y-11118758D01*
X28223618Y-11118748D01*
X28046786Y-10983060D01*
X28046771Y-10983050D01*
X27853726Y-10871595D01*
X27853727Y-10871595D01*
X27647782Y-10786290D01*
X27647776Y-10786288D01*
X27432474Y-10728598D01*
X27432467Y-10728597D01*
X27432463Y-10728596D01*
X27211457Y-10699500D01*
X26988543Y-10699500D01*
X26767537Y-10728596D01*
X26767533Y-10728596D01*
X26767525Y-10728598D01*
X26552223Y-10786288D01*
X26552217Y-10786290D01*
X26346272Y-10871595D01*
X26153228Y-10983050D01*
X26153213Y-10983060D01*
X25976381Y-11118748D01*
X25976369Y-11118758D01*
X25818758Y-11276369D01*
X25818748Y-11276381D01*
X25683060Y-11453213D01*
X25683050Y-11453228D01*
X25571595Y-11646272D01*
X25486290Y-11852217D01*
X25486288Y-11852223D01*
X25428598Y-12067525D01*
X25428596Y-12067533D01*
X25428596Y-12067537D01*
X25399500Y-12288543D01*
X24581467Y-12288543D01*
X24570452Y-12219001D01*
X24570451Y-12218998D01*
X24512084Y-12039361D01*
X24426331Y-11871063D01*
X24410263Y-11848945D01*
X23924982Y-12334226D01*
X23912518Y-12287708D01*
X23840110Y-12162292D01*
X23737708Y-12059890D01*
X23612292Y-11987482D01*
X23565771Y-11975016D01*
X24051052Y-11489736D01*
X24028937Y-11473668D01*
X23860638Y-11387915D01*
X23681001Y-11329548D01*
X23680998Y-11329547D01*
X23494441Y-11300000D01*
X23305559Y-11300000D01*
X23119001Y-11329547D01*
X23118998Y-11329548D01*
X22939361Y-11387915D01*
X22771064Y-11473667D01*
X22771059Y-11473670D01*
X22748946Y-11489736D01*
X23234226Y-11975017D01*
X23187708Y-11987482D01*
X23062292Y-12059890D01*
X22959890Y-12162292D01*
X22887482Y-12287708D01*
X22875017Y-12334226D01*
X22389736Y-11848946D01*
X22373670Y-11871059D01*
X22373667Y-11871064D01*
X22287915Y-12039361D01*
X22229548Y-12218998D01*
X22229547Y-12219001D01*
X22200000Y-12405558D01*
X18100000Y-12405558D01*
X18070452Y-12219001D01*
X18070451Y-12218998D01*
X18012084Y-12039361D01*
X17926331Y-11871063D01*
X17910263Y-11848945D01*
X17424982Y-12334226D01*
X17412518Y-12287708D01*
X17340110Y-12162292D01*
X17237708Y-12059890D01*
X17112292Y-11987482D01*
X17065771Y-11975016D01*
X17551052Y-11489736D01*
X17528937Y-11473668D01*
X17360638Y-11387915D01*
X17181001Y-11329548D01*
X17180998Y-11329547D01*
X16994441Y-11300000D01*
X16805559Y-11300000D01*
X16619001Y-11329547D01*
X16618998Y-11329548D01*
X16439361Y-11387915D01*
X16271064Y-11473667D01*
X16271059Y-11473670D01*
X16248946Y-11489736D01*
X16734226Y-11975017D01*
X16687708Y-11987482D01*
X16562292Y-12059890D01*
X16459890Y-12162292D01*
X16387482Y-12287708D01*
X16375017Y-12334226D01*
X15889736Y-11848946D01*
X15873670Y-11871059D01*
X15873667Y-11871064D01*
X15787915Y-12039361D01*
X15729548Y-12218998D01*
X15729547Y-12219001D01*
X15700000Y-12405558D01*
X14800500Y-12405558D01*
X14800500Y-12288543D01*
X14771404Y-12067537D01*
X14750154Y-11988232D01*
X14713711Y-11852223D01*
X14713709Y-11852217D01*
X14628404Y-11646272D01*
X14604862Y-11605497D01*
X14516948Y-11453226D01*
X14516945Y-11453222D01*
X14516939Y-11453213D01*
X14381251Y-11276381D01*
X14381241Y-11276369D01*
X14223630Y-11118758D01*
X14223618Y-11118748D01*
X14046786Y-10983060D01*
X14046771Y-10983050D01*
X13853726Y-10871595D01*
X13853727Y-10871595D01*
X13647782Y-10786290D01*
X13647776Y-10786288D01*
X13432474Y-10728598D01*
X13432467Y-10728597D01*
X13432463Y-10728596D01*
X13211457Y-10699500D01*
X12988543Y-10699500D01*
X12767537Y-10728596D01*
X12767533Y-10728596D01*
X12767525Y-10728598D01*
X12552223Y-10786288D01*
X12552217Y-10786290D01*
X12346272Y-10871595D01*
X12153228Y-10983050D01*
X12153213Y-10983060D01*
X11976381Y-11118748D01*
X11976369Y-11118758D01*
X11818758Y-11276369D01*
X11818748Y-11276381D01*
X11683060Y-11453213D01*
X11683050Y-11453228D01*
X11571595Y-11646272D01*
X11486290Y-11852217D01*
X11486288Y-11852223D01*
X11428598Y-12067525D01*
X11428596Y-12067533D01*
X11428596Y-12067537D01*
X11399500Y-12288543D01*
X11198480Y-12288543D01*
X11230055Y-11988227D01*
X11232183Y-11978217D01*
X11232184Y-11978216D01*
X11351668Y-11610391D01*
X11355836Y-11601033D01*
X11389844Y-11542130D01*
X11549180Y-11266152D01*
X11555196Y-11257872D01*
X11813933Y-10970532D01*
X11821548Y-10963677D01*
X12016549Y-10822035D01*
X12134393Y-10736436D01*
X12143249Y-10731323D01*
X12496529Y-10574000D01*
X12506262Y-10570837D01*
X12884505Y-10490469D01*
X12894689Y-10489400D01*
X27281375Y-10489400D01*
X27291558Y-10490469D01*
G37*
G04 #@! TD.AperFunction*
M02*
