G04 #@! TF.GenerationSoftware,KiCad,Pcbnew,10.0.5*
G04 #@! TF.CreationDate,2026-07-26T23:15:38+00:00*
G04 #@! TF.ProjectId,hawk,6861776b-2e6b-4696-9361-645f70636258,rev?*
G04 #@! TF.SameCoordinates,Original*
G04 #@! TF.FileFunction,Profile,NP*
%FSLAX46Y46*%
G04 Gerber Fmt 4.6, Leading zero omitted, Abs format (unit mm)*
G04 Created by KiCad (PCBNEW 10.0.5) date 2026-07-26 23:15:38*
%MOMM*%
%LPD*%
G01*
G04 APERTURE LIST*
G04 #@! TA.AperFunction,Profile*
%ADD10C,0.200000*%
G04 #@! TD*
G04 APERTURE END LIST*
D10*
X29044310Y-11962100D02*
X28915120Y-11564400D01*
X27297080Y-44366900D02*
X27706060Y-44280000D01*
X11260940Y-43191400D02*
X11470000Y-43553500D01*
X11088030Y-12377900D02*
X11088030Y-42377900D01*
X11470000Y-11202300D02*
X11260940Y-11564400D01*
X11131750Y-11962100D02*
X11088030Y-12377900D01*
X29088030Y-42377900D02*
X29088030Y-12377900D01*
X29088030Y-12377900D02*
X29044310Y-11962100D01*
X28706060Y-11202300D02*
X28426290Y-10891600D01*
X12470000Y-10475800D02*
X12088030Y-10645900D01*
X27706060Y-10475800D02*
X27297080Y-10388900D01*
X12088030Y-44109900D02*
X12470000Y-44280000D01*
X11470000Y-43553500D02*
X11749770Y-43864200D01*
X11088030Y-42377900D02*
X11131750Y-42793700D01*
X28426290Y-10891600D02*
X28088030Y-10645900D01*
X28915120Y-43191400D02*
X29044310Y-42793700D01*
X11749770Y-10891600D02*
X11470000Y-11202300D01*
X29044310Y-42793700D02*
X29088030Y-42377900D01*
X11131750Y-42793700D02*
X11260940Y-43191400D01*
X12088030Y-10645900D02*
X11749770Y-10891600D01*
X12878980Y-10388900D02*
X12470000Y-10475800D01*
X27297080Y-10388900D02*
X12878980Y-10388900D01*
X28088030Y-10645900D02*
X27706060Y-10475800D01*
X28088030Y-44109900D02*
X28426290Y-43864200D01*
X12878980Y-44366900D02*
X27297080Y-44366900D01*
X11260940Y-11564400D02*
X11131750Y-11962100D01*
X28706060Y-43553500D02*
X28915120Y-43191400D01*
X28915120Y-11564400D02*
X28706060Y-11202300D01*
X28426290Y-43864200D02*
X28706060Y-43553500D01*
X11749770Y-43864200D02*
X12088030Y-44109900D01*
X27706060Y-44280000D02*
X28088030Y-44109900D01*
X12470000Y-44280000D02*
X12878980Y-44366900D01*
M02*
