<?xml version="1.0" encoding="UTF-8" standalone="no"?>
<!DOCTYPE svg PUBLIC "-//W3C//DTD SVG 1.1//EN" "http://www.w3.org/Graphics/SVG/1.1/DTD/svg11.dtd">
<svg width="100%" height="100%" viewBox="0 0 1640 856" version="1.1" xmlns="http://www.w3.org/2000/svg" xmlns:xlink="http://www.w3.org/1999/xlink" xml:space="preserve" xmlns:serif="http://www.serif.com/" style="fill-rule:evenodd;clip-rule:evenodd;stroke-miterlimit:10;">
    <g id="Layer-1" serif:id="Layer 1">
        <g transform="matrix(1,0,0,1,231.439,991)">
            <path d="M0,-1054L1230.12,-1054C1399.91,-1054 1537.56,-980.572 1537.56,-889.994L1537.56,-164.006C1537.56,-73.428 1399.91,0 1230.12,0L0,0C-169.794,0 -307.439,-73.428 -307.439,-164.006L-307.439,-889.994C-307.439,-980.572 -169.794,-1054 0,-1054" style="fill:rgb(102,0,102);"/>
        </g>
        <g transform="matrix(1,0,0,1,1083.48,515.689)">
            <path d="M0,-400.887C34.199,-400.887 61.943,-373.143 61.943,-338.944C61.943,-310.066 42.139,-285.725 15.354,-278.92L15.354,-214.359C42.139,-207.467 61.943,-183.213 61.943,-154.335C61.943,-120.136 34.199,-92.392 0,-92.392C-17.362,-92.392 -33.065,-99.546 -44.32,-110.975L-100.244,-78.694C-98.761,-73.373 -97.976,-67.789 -97.976,-62.031C-97.976,-27.744 -125.719,0 -159.919,0C-194.118,0 -221.862,-27.744 -221.862,-62.031C-221.862,-67.789 -221.077,-73.373 -219.594,-78.694L-275.517,-110.975C-286.771,-99.546 -302.388,-92.392 -319.75,-92.392C-348.715,-92.392 -373.056,-112.196 -379.861,-138.98L-466.931,-138.98C-473.736,-112.196 -497.99,-92.392 -526.955,-92.392C-561.154,-92.392 -588.898,-120.136 -588.898,-154.335C-588.898,-183.213 -569.094,-207.467 -542.31,-214.359L-542.31,-278.92C-569.094,-285.725 -588.898,-310.066 -588.898,-338.944C-588.898,-373.143 -561.154,-400.887 -526.955,-400.887C-492.755,-400.887 -465.011,-373.143 -465.011,-338.944C-465.011,-310.066 -484.816,-285.725 -511.6,-278.92L-511.6,-214.359C-489.702,-208.776 -472.515,-191.501 -466.931,-169.603L-379.861,-169.603C-374.277,-191.501 -357.09,-208.776 -335.192,-214.359L-335.192,-278.92C-361.976,-285.725 -381.781,-310.066 -381.781,-338.944C-381.781,-373.143 -354.037,-400.887 -319.75,-400.887C-285.55,-400.887 -257.807,-373.143 -257.807,-338.944C-257.807,-310.066 -277.611,-285.725 -304.395,-278.92L-304.395,-214.359C-277.611,-207.467 -257.807,-183.213 -257.807,-154.335C-257.807,-148.49 -258.679,-142.906 -260.162,-137.584L-204.239,-105.304C-192.984,-116.82 -177.28,-123.974 -159.919,-123.974C-142.558,-123.974 -126.854,-116.82 -115.599,-105.304L-59.675,-137.584C-61.158,-142.906 -61.943,-148.49 -61.943,-154.335C-61.943,-183.213 -42.14,-207.467 -15.355,-214.359L-15.355,-278.92C-42.14,-285.725 -61.943,-310.066 -61.943,-338.944C-61.943,-373.143 -34.2,-400.887 0,-400.887" style="fill:rgb(254,254,254);"/>
        </g>
        <g transform="matrix(1,0,0,1,1083.48,515.689)">
            <path d="M0,-400.887C34.199,-400.887 61.943,-373.143 61.943,-338.944C61.943,-310.066 42.139,-285.725 15.354,-278.92L15.354,-214.359C42.139,-207.467 61.943,-183.213 61.943,-154.335C61.943,-120.136 34.199,-92.392 0,-92.392C-17.362,-92.392 -33.065,-99.546 -44.32,-110.975L-100.244,-78.694C-98.761,-73.373 -97.976,-67.789 -97.976,-62.031C-97.976,-27.744 -125.719,0 -159.919,0C-194.118,0 -221.862,-27.744 -221.862,-62.031C-221.862,-67.789 -221.077,-73.373 -219.594,-78.694L-275.517,-110.975C-286.771,-99.546 -302.388,-92.392 -319.75,-92.392C-348.715,-92.392 -373.056,-112.196 -379.861,-138.98L-466.931,-138.98C-473.736,-112.196 -497.99,-92.392 -526.955,-92.392C-561.154,-92.392 -588.898,-120.136 -588.898,-154.335C-588.898,-183.213 -569.094,-207.467 -542.31,-214.359L-542.31,-278.92C-569.094,-285.725 -588.898,-310.066 -588.898,-338.944C-588.898,-373.143 -561.154,-400.887 -526.955,-400.887C-492.755,-400.887 -465.011,-373.143 -465.011,-338.944C-465.011,-310.066 -484.816,-285.725 -511.6,-278.92L-511.6,-214.359C-489.702,-208.776 -472.515,-191.501 -466.931,-169.603L-379.861,-169.603C-374.277,-191.501 -357.09,-208.776 -335.192,-214.359L-335.192,-278.92C-361.976,-285.725 -381.781,-310.066 -381.781,-338.944C-381.781,-373.143 -354.037,-400.887 -319.75,-400.887C-285.55,-400.887 -257.807,-373.143 -257.807,-338.944C-257.807,-310.066 -277.611,-285.725 -304.395,-278.92L-304.395,-214.359C-277.611,-207.467 -257.807,-183.213 -257.807,-154.335C-257.807,-148.49 -258.679,-142.906 -260.162,-137.584L-204.239,-105.304C-192.984,-116.82 -177.28,-123.974 -159.919,-123.974C-142.558,-123.974 -126.854,-116.82 -115.599,-105.304L-59.675,-137.584C-61.158,-142.906 -61.943,-148.49 -61.943,-154.335C-61.943,-183.213 -42.14,-207.467 -15.355,-214.359L-15.355,-278.92C-42.14,-285.725 -61.943,-310.066 -61.943,-338.944C-61.943,-373.143 -34.2,-400.887 0,-400.887Z" style="fill:none;fill-rule:nonzero;stroke:black;stroke-width:5px;"/>
        </g>
        <text x="525.071px" y="696.023px" style="font-family:'SegoeUIBlack', 'Segoe UI', sans-serif;font-weight:900;font-size:180px;fill:white;">TOOLS</text>
        <g transform="matrix(1,0,0,1,636.867,666.315)">
            <path d="M0,-66.621L0,-96.328L-109.072,-96.328L-109.072,-66.621L-73.828,-66.621L-73.828,29.707L-35.683,29.707L-35.683,-66.621L0,-66.621Z" style="fill:none;fill-rule:nonzero;stroke:black;stroke-width:5px;"/>
        </g>
        <g transform="matrix(1,0,0,1,764.089,667.238)">
            <path d="M0,-68.379C-5.186,-78.311 -12.539,-85.957 -22.061,-91.318C-31.583,-96.68 -42.378,-99.36 -54.448,-99.36C-66.987,-99.36 -78.179,-96.562 -88.022,-90.967C-97.866,-85.371 -105.513,-77.445 -110.962,-67.192C-116.411,-56.938 -119.136,-45.396 -119.136,-32.564C-119.136,-20.316 -116.441,-9.346 -111.05,0.351C-105.659,10.05 -98.116,17.578 -88.418,22.939C-78.721,28.301 -67.954,30.981 -56.118,30.981C-43.989,30.981 -33.033,28.213 -23.247,22.676C-13.462,17.139 -5.845,9.375 -0.396,-0.615C5.054,-10.605 7.778,-21.929 7.778,-34.585C7.778,-47.182 5.186,-58.447 0,-68.379ZM-35.376,-16.392C-37.31,-11.587 -40.034,-7.896 -43.55,-5.317C-47.065,-2.738 -51.021,-1.45 -55.415,-1.45C-62.622,-1.45 -68.321,-4.32 -72.51,-10.064C-76.699,-15.806 -78.794,-23.804 -78.794,-34.058C-78.794,-44.546 -76.685,-52.66 -72.466,-58.403C-68.247,-64.145 -62.358,-67.017 -54.8,-67.017C-47.887,-67.017 -42.438,-64.028 -38.452,-58.052C-34.468,-52.075 -32.476,-43.901 -32.476,-33.53C-32.476,-26.908 -33.442,-21.195 -35.376,-16.392Z" style="fill:none;fill-rule:nonzero;stroke:black;stroke-width:5px;"/>
        </g>
        <g transform="matrix(1,0,0,1,901.813,667.238)">
            <path d="M0,-68.379C-5.186,-78.311 -12.539,-85.957 -22.061,-91.318C-31.583,-96.68 -42.378,-99.36 -54.448,-99.36C-66.987,-99.36 -78.179,-96.562 -88.022,-90.967C-97.866,-85.371 -105.513,-77.445 -110.962,-67.192C-116.411,-56.938 -119.136,-45.396 -119.136,-32.564C-119.136,-20.316 -116.441,-9.346 -111.05,0.351C-105.659,10.05 -98.116,17.578 -88.418,22.939C-78.721,28.301 -67.954,30.981 -56.118,30.981C-43.989,30.981 -33.033,28.213 -23.247,22.676C-13.462,17.139 -5.845,9.375 -0.396,-0.615C5.054,-10.605 7.778,-21.929 7.778,-34.585C7.778,-47.182 5.186,-58.447 0,-68.379ZM-35.376,-16.392C-37.31,-11.587 -40.034,-7.896 -43.55,-5.317C-47.065,-2.738 -51.021,-1.45 -55.415,-1.45C-62.622,-1.45 -68.321,-4.32 -72.51,-10.064C-76.699,-15.806 -78.794,-23.804 -78.794,-34.058C-78.794,-44.546 -76.685,-52.66 -72.466,-58.403C-68.247,-64.145 -62.358,-67.017 -54.8,-67.017C-47.887,-67.017 -42.438,-64.028 -38.452,-58.052C-34.468,-52.075 -32.476,-43.901 -32.476,-33.53C-32.476,-26.908 -33.442,-21.195 -35.376,-16.392Z" style="fill:none;fill-rule:nonzero;stroke:black;stroke-width:5px;"/>
        </g>
        <g transform="matrix(1,0,0,1,1008.82,569.988)">
            <path d="M0,126.035L0,96.328L-43.418,96.328L-43.418,0L-81.387,0L-81.387,126.035L0,126.035Z" style="fill:none;fill-rule:nonzero;stroke:black;stroke-width:5px;"/>
        </g>
        <g transform="matrix(1,0,0,1,1104.23,630.544)">
            <path d="M0,5.01C-5.42,-1.259 -14.664,-7.031 -27.729,-12.304C-34.352,-15.058 -38.702,-17.299 -40.781,-19.028C-42.861,-20.756 -43.901,-22.939 -43.901,-25.576C-43.901,-28.329 -42.613,-30.498 -40.034,-32.08C-37.456,-33.662 -34.058,-34.453 -29.839,-34.453C-19.586,-34.453 -9.155,-31.553 1.45,-25.752L1.45,-57.832C-3.999,-59.296 -8.232,-60.293 -11.25,-60.82C-14.269,-61.347 -17.622,-61.787 -21.313,-62.138C-25.005,-62.49 -29.048,-62.666 -33.442,-62.666C-49.029,-62.666 -61.45,-59.018 -70.708,-51.723C-79.967,-44.428 -84.595,-34.686 -84.595,-22.5C-84.595,-5.097 -74.458,7.501 -54.185,15.293C-47.915,17.637 -43.624,19.483 -41.309,20.83C-38.994,22.179 -37.266,23.629 -36.123,25.181C-34.98,26.734 -34.409,28.535 -34.409,30.586C-34.409,33.457 -35.552,35.64 -37.837,37.134C-40.122,38.628 -43.345,39.375 -47.505,39.375C-53.013,39.375 -58.961,38.189 -65.347,35.816C-71.733,33.443 -77.563,30.322 -82.837,26.455L-82.837,60.996C-71.881,65.449 -59.81,67.676 -46.626,67.676C-35.259,67.676 -25.532,66.152 -17.446,63.106C-9.36,60.06 -3.076,55.43 1.406,49.219C5.889,43.009 8.13,35.714 8.13,27.334C8.13,18.721 5.419,11.281 0,5.01Z" style="fill:none;fill-rule:nonzero;stroke:black;stroke-width:5px;"/>
        </g>
    </g>
</svg>
